<svg width="195" height="32" viewBox="0 0 195 32" fill="none" xmlns="http://www.w3.org/2000/svg">
<path d="M56.0113 25.25C54.6447 25.25 53.3363 25.0583 52.0863 24.675C50.8363 24.275 49.8447 23.7667 49.1113 23.15L50.2363 20.625C50.9363 21.175 51.803 21.6333 52.8363 22C53.8697 22.3667 54.928 22.55 56.0113 22.55C56.928 22.55 57.6697 22.45 58.2363 22.25C58.803 22.05 59.2197 21.7833 59.4863 21.45C59.753 21.1 59.8863 20.7083 59.8863 20.275C59.8863 19.7417 59.6947 19.3167 59.3113 19C58.928 18.6667 58.428 18.4083 57.8113 18.225C57.2113 18.025 56.5363 17.8417 55.7863 17.675C55.053 17.5083 54.3113 17.3167 53.5613 17.1C52.828 16.8667 52.153 16.575 51.5363 16.225C50.9363 15.8583 50.4447 15.375 50.0613 14.775C49.678 14.175 49.4863 13.4083 49.4863 12.475C49.4863 11.525 49.7363 10.6583 50.2363 9.875C50.753 9.075 51.528 8.44167 52.5613 7.975C53.6113 7.49167 54.9363 7.25 56.5363 7.25C57.5863 7.25 58.628 7.38333 59.6613 7.65C60.6947 7.91667 61.5947 8.3 62.3613 8.8L61.3363 11.325C60.553 10.8583 59.7447 10.5167 58.9113 10.3C58.078 10.0667 57.278 9.95 56.5113 9.95C55.6113 9.95 54.878 10.0583 54.3113 10.275C53.7613 10.4917 53.353 10.775 53.0863 11.125C52.8363 11.475 52.7113 11.875 52.7113 12.325C52.7113 12.8583 52.8947 13.2917 53.2613 13.625C53.6447 13.9417 54.1363 14.1917 54.7363 14.375C55.353 14.5583 56.0363 14.7417 56.7863 14.925C57.5363 15.0917 58.278 15.2833 59.0113 15.5C59.7613 15.7167 60.4363 16 61.0363 16.35C61.653 16.7 62.1447 17.175 62.5113 17.775C62.8947 18.375 63.0863 19.1333 63.0863 20.05C63.0863 20.9833 62.828 21.85 62.3113 22.65C61.8113 23.4333 61.0363 24.0667 59.9863 24.55C58.9363 25.0167 57.6113 25.25 56.0113 25.25ZM73.409 25.175C72.3256 25.175 71.334 24.925 70.434 24.425C69.5506 23.925 68.8423 23.175 68.309 22.175C67.7923 21.1583 67.534 19.875 67.534 18.325C67.534 16.7583 67.784 15.475 68.284 14.475C68.8006 13.475 69.5006 12.7333 70.384 12.25C71.2673 11.75 72.2756 11.5 73.409 11.5C74.7256 11.5 75.884 11.7833 76.884 12.35C77.9006 12.9167 78.7006 13.7083 79.284 14.725C79.884 15.7417 80.184 16.9417 80.184 18.325C80.184 19.7083 79.884 20.9167 79.284 21.95C78.7006 22.9667 77.9006 23.7583 76.884 24.325C75.884 24.8917 74.7256 25.175 73.409 25.175ZM66.009 29.85L66.009 11.65L68.984 11.65L68.984 14.8L68.884 18.35L69.134 21.9L69.134 29.85L66.009 29.85ZM73.059 22.5C73.809 22.5 74.4756 22.3333 75.059 22C75.659 21.6667 76.134 21.1833 76.484 20.55C76.834 19.9167 77.009 19.175 77.009 18.325C77.009 17.4583 76.834 16.7167 76.484 16.1C76.134 15.4667 75.659 14.9833 75.059 14.65C74.4756 14.3167 73.809 14.15 73.059 14.15C72.309 14.15 71.634 14.3167 71.034 14.65C70.434 14.9833 69.959 15.4667 69.609 16.1C69.259 16.7167 69.084 17.4583 69.084 18.325C69.084 19.175 69.259 19.9167 69.609 20.55C69.959 21.1833 70.434 21.6667 71.034 22C71.634 22.3333 72.309 22.5 73.059 22.5ZM83.1477 25L83.1477 11.65L86.2727 11.65L86.2727 25L83.1477 25ZM84.7227 9.45001C84.1393 9.45001 83.656 9.26667 83.2727 8.9C82.906 8.53334 82.7227 8.09167 82.7227 7.57501C82.7227 7.04167 82.906 6.60001 83.2727 6.25C83.656 5.88334 84.1393 5.70001 84.7227 5.70001C85.306 5.70001 85.781 5.87501 86.1477 6.22501C86.531 6.55834 86.7227 6.98334 86.7227 7.50001C86.7227 8.05001 86.5393 8.51667 86.1727 8.90001C85.806 9.26667 85.3227 9.45001 84.7227 9.45001ZM97.9492 11.5C99.0159 11.5 99.9659 11.7083 100.799 12.125C101.649 12.5417 102.316 13.1833 102.799 14.05C103.283 14.9 103.524 16 103.524 17.35L103.524 25L100.399 25L100.399 17.75C100.399 16.5667 100.116 15.6833 99.5492 15.1C98.9992 14.5167 98.2242 14.225 97.2242 14.225C96.4909 14.225 95.8409 14.375 95.2742 14.675C94.7075 14.975 94.2659 15.425 93.9492 16.025C93.6492 16.6083 93.4992 17.35 93.4992 18.25L93.4992 25L90.3742 25L90.3742 11.65L93.3492 11.65L93.3492 15.25L92.8242 14.15C93.2909 13.3 93.9659 12.65 94.8492 12.2C95.7492 11.7333 96.7826 11.5 97.9492 11.5ZM115.713 25L115.713 22.3L115.538 21.725L115.538 17C115.538 16.0833 115.263 15.375 114.713 14.875C114.163 14.3583 113.33 14.1 112.213 14.1C111.463 14.1 110.722 14.2167 109.988 14.45C109.272 14.6833 108.663 15.0083 108.163 15.425L106.938 13.15C107.655 12.6 108.505 12.1917 109.488 11.925C110.488 11.6417 111.522 11.5 112.588 11.5C114.522 11.5 116.013 11.9667 117.063 12.9C118.13 13.8167 118.663 15.2417 118.663 17.175L118.663 25L115.713 25ZM111.513 25.175C110.513 25.175 109.638 25.0083 108.888 24.675C108.138 24.325 107.555 23.85 107.138 23.25C106.738 22.6333 106.538 21.9417 106.538 21.175C106.538 20.425 106.713 19.75 107.063 19.15C107.43 18.55 108.022 18.075 108.838 17.725C109.655 17.375 110.738 17.2 112.088 17.2L115.963 17.2L115.963 19.275L112.313 19.275C111.247 19.275 110.53 19.45 110.163 19.8C109.797 20.1333 109.613 20.55 109.613 21.05C109.613 21.6167 109.838 22.0667 110.288 22.4C110.738 22.7333 111.363 22.9 112.163 22.9C112.93 22.9 113.613 22.725 114.213 22.375C114.83 22.025 115.272 21.5083 115.538 20.825L116.063 22.7C115.763 23.4833 115.222 24.0917 114.438 24.525C113.672 24.9583 112.697 25.175 111.513 25.175ZM122.674 25L122.674 6.45001L125.799 6.45001L125.799 25L122.674 25ZM145.21 25.25C143.876 25.25 142.635 25.0333 141.485 24.6C140.351 24.15 139.36 23.525 138.51 22.725C137.676 21.9083 137.026 20.95 136.56 19.85C136.093 18.75 135.86 17.55 135.86 16.25C135.86 14.95 136.093 13.75 136.56 12.65C137.026 11.55 137.685 10.6 138.535 9.80001C139.385 8.98335 140.376 8.35835 141.51 7.92502C142.643 7.47502 143.885 7.25002 145.235 7.25002C146.668 7.25002 147.976 7.50002 149.16 8.00002C150.343 8.48335 151.343 9.20835 152.16 10.175L150.06 12.15C149.426 11.4667 148.718 10.9584 147.935 10.625C147.151 10.275 146.301 10.1 145.385 10.1C144.468 10.1 143.626 10.25 142.86 10.55C142.11 10.85 141.451 11.275 140.885 11.825C140.335 12.375 139.901 13.025 139.585 13.775C139.285 14.525 139.135 15.35 139.135 16.25C139.135 17.15 139.285 17.975 139.585 18.725C139.901 19.475 140.335 20.125 140.885 20.675C141.451 21.225 142.11 21.65 142.86 21.95C143.626 22.25 144.468 22.4 145.385 22.4C146.301 22.4 147.151 22.2334 147.935 21.9C148.718 21.55 149.426 21.025 150.06 20.325L152.16 22.325C151.343 23.275 150.343 24 149.16 24.5C147.976 25 146.66 25.25 145.21 25.25ZM163.077 25L163.077 22.3L162.902 21.725L162.902 17C162.902 16.0834 162.627 15.375 162.077 14.875C161.527 14.3584 160.693 14.1 159.577 14.1C158.827 14.1 158.085 14.2167 157.352 14.45C156.635 14.6834 156.027 15.0084 155.527 15.425L154.302 13.15C155.018 12.6 155.868 12.1917 156.852 11.925C157.852 11.6417 158.885 11.5 159.952 11.5C161.885 11.5 163.377 11.9667 164.427 12.9C165.493 13.8167 166.027 15.2417 166.027 17.175L166.027 25L163.077 25ZM158.877 25.175C157.877 25.175 157.002 25.0084 156.252 24.675C155.502 24.325 154.918 23.85 154.502 23.25C154.102 22.6334 153.902 21.9417 153.902 21.175C153.902 20.425 154.077 19.75 154.427 19.15C154.793 18.55 155.385 18.075 156.202 17.725C157.018 17.375 158.102 17.2 159.452 17.2L163.327 17.2L163.327 19.275L159.677 19.275C158.61 19.275 157.893 19.45 157.527 19.8C157.16 20.1334 156.977 20.55 156.977 21.05C156.977 21.6167 157.202 22.0667 157.652 22.4C158.102 22.7334 158.727 22.9 159.527 22.9C160.293 22.9 160.977 22.725 161.577 22.375C162.193 22.025 162.635 21.5084 162.902 20.825L163.427 22.7C163.127 23.4834 162.585 24.0917 161.802 24.525C161.035 24.9584 160.06 25.175 158.877 25.175ZM170.037 25L170.037 11.65L173.012 11.65L173.012 15.325L172.662 14.25C173.062 13.35 173.687 12.6667 174.537 12.2C175.404 11.7334 176.479 11.5 177.762 11.5L177.762 14.475C177.629 14.4417 177.504 14.425 177.387 14.425C177.271 14.4084 177.154 14.4 177.037 14.4C175.854 14.4 174.912 14.75 174.212 15.45C173.512 16.1334 173.162 17.1584 173.162 18.525L173.162 25L170.037 25ZM186.566 25.175C185.083 25.175 183.783 24.8834 182.666 24.3C181.566 23.7 180.708 22.8834 180.091 21.85C179.491 20.8167 179.191 19.6417 179.191 18.325C179.191 16.9917 179.483 15.8167 180.066 14.8C180.666 13.7667 181.483 12.9584 182.516 12.375C183.566 11.7917 184.758 11.5 186.091 11.5C187.391 11.5 188.55 11.7834 189.566 12.35C190.583 12.9167 191.383 13.7167 191.966 14.75C192.55 15.7834 192.841 17 192.841 18.4C192.841 18.5334 192.833 18.6834 192.816 18.85C192.816 19.0167 192.808 19.175 192.791 19.325L181.666 19.325L181.666 17.25L191.141 17.25L189.916 17.9C189.933 17.1334 189.775 16.4584 189.441 15.875C189.108 15.2917 188.65 14.8334 188.066 14.5C187.5 14.1667 186.841 14 186.091 14C185.325 14 184.65 14.1667 184.066 14.5C183.5 14.8334 183.05 15.3 182.716 15.9C182.4 16.4834 182.241 17.175 182.241 17.975L182.241 18.475C182.241 19.275 182.425 19.9834 182.791 20.6C183.158 21.2167 183.675 21.6917 184.341 22.025C185.008 22.3584 185.775 22.525 186.641 22.525C187.391 22.525 188.066 22.4084 188.666 22.175C189.266 21.9417 189.8 21.575 190.266 21.075L191.941 23C191.341 23.7 190.583 24.2417 189.666 24.625C188.766 24.9917 187.733 25.175 186.566 25.175Z" fill="#0152A8"/>
<path d="M33.055 5.52914H2.64799V1.56301C2.64799 1.21238 2.50871 0.876116 2.26078 0.628185C2.01284 0.380253 1.67658 0.240967 1.32595 0.240967C0.975322 0.240967 0.639055 0.380253 0.391124 0.628185C0.143193 0.876116 0.00390625 1.21238 0.00390625 1.56301V28.0039C0.00390625 28.3545 0.143193 28.6908 0.391124 28.9387C0.639055 29.1866 0.975322 29.3259 1.32595 29.3259C1.67658 29.3259 2.01284 29.1866 2.26078 28.9387C2.50871 28.6908 2.64799 28.3545 2.64799 28.0039V22.7157H37.0211V28.0039C37.0211 28.3545 37.1604 28.6908 37.4083 28.9387C37.6563 29.1866 37.9925 29.3259 38.3432 29.3259C38.6938 29.3259 39.0301 29.1866 39.278 28.9387C39.5259 28.6908 39.6652 28.3545 39.6652 28.0039V12.1394C39.6652 10.3862 38.9688 8.70489 37.7291 7.46523C36.4895 6.22557 34.8081 5.52914 33.055 5.52914ZM2.64799 8.17323H14.5464V20.0716H2.64799V8.17323Z" fill="#0FE3AF"/>
</svg>
