<svg width="176" height="34" viewBox="0 0 176 34" fill="none" xmlns="http://www.w3.org/2000/svg">
<path d="M52.3203 25.3C51.4203 25.3 50.612 25.0917 49.8953 24.675C49.1786 24.2583 48.612 23.6917 48.1953 22.975C47.7953 22.2417 47.5953 21.3917 47.5953 20.425L47.5953 11.725C47.5953 11.275 47.487 10.8667 47.2703 10.5C47.0536 10.1333 46.762 9.84167 46.3953 9.625C46.0286 9.40833 45.6286 9.3 45.1953 9.3C44.762 9.3 44.362 9.40833 43.9953 9.625C43.6453 9.84167 43.362 10.1333 43.1453 10.5C42.9453 10.8667 42.8453 11.275 42.8453 11.725L42.8453 25L40.4453 25L40.4453 12.05C40.4453 11.1333 40.6453 10.3083 41.0453 9.575C41.4453 8.84167 42.0036 8.26667 42.7203 7.85C43.437 7.41667 44.262 7.2 45.1953 7.2C46.1453 7.2 46.9786 7.41667 47.6953 7.85C48.412 8.26667 48.9703 8.84167 49.3703 9.575C49.7703 10.3083 49.9703 11.1333 49.9703 12.05L49.9703 20.75C49.9703 21.2167 50.0786 21.6333 50.2953 22C50.512 22.35 50.7953 22.6333 51.1453 22.85C51.512 23.0667 51.9036 23.175 52.3203 23.175C52.737 23.175 53.1203 23.0667 53.4703 22.85C53.8203 22.6333 54.0953 22.35 54.2953 22C54.512 21.6333 54.6203 21.2167 54.6203 20.75L54.6203 12.05C54.6203 11.1333 54.8203 10.3083 55.2203 9.575C55.637 8.84167 56.2036 8.26667 56.9203 7.85C57.637 7.41667 58.4703 7.2 59.4203 7.2C60.3536 7.2 61.1786 7.41667 61.8953 7.85C62.612 8.26667 63.1703 8.84167 63.5703 9.575C63.9703 10.3083 64.1703 11.1333 64.1703 12.05L64.1703 25L61.7703 25L61.7703 11.725C61.7703 11.275 61.662 10.8667 61.4453 10.5C61.2453 10.1333 60.962 9.84167 60.5953 9.625C60.2453 9.40834 59.8536 9.3 59.4203 9.3C58.9703 9.3 58.562 9.40834 58.1953 9.625C57.8453 9.84167 57.562 10.1333 57.3453 10.5C57.1286 10.8667 57.0203 11.275 57.0203 11.725L57.0203 20.425C57.0203 21.3917 56.812 22.2417 56.3953 22.975C55.9953 23.6917 55.437 24.2583 54.7203 24.675C54.0203 25.0917 53.2203 25.3 52.3203 25.3ZM67.667 25L67.667 15.875C67.667 14.7417 67.9837 13.8583 68.617 13.225C69.267 12.575 70.1587 12.25 71.292 12.25L73.917 12.25L73.917 14.225L71.717 14.225C71.167 14.225 70.7337 14.3833 70.417 14.7C70.117 15.0167 69.967 15.4583 69.967 16.025L69.967 25L67.667 25ZM76.8178 25.25C76.3678 25.25 75.9761 25.0917 75.6428 24.775C75.3261 24.4417 75.1678 24.05 75.1678 23.6C75.1678 23.15 75.3261 22.7667 75.6428 22.45C75.9761 22.1167 76.3678 21.95 76.8178 21.95C77.2678 21.95 77.6511 22.1167 77.9678 22.45C78.3011 22.7667 78.4678 23.15 78.4678 23.6C78.4678 23.9 78.3928 24.175 78.2428 24.425C78.1094 24.675 77.9178 24.875 77.6678 25.025C77.4178 25.175 77.1344 25.25 76.8178 25.25ZM93.043 25.3C92.143 25.3 91.3346 25.0917 90.618 24.675C89.9013 24.2583 89.3346 23.6917 88.918 22.975C88.518 22.2417 88.318 21.3917 88.318 20.425L88.318 11.725C88.318 11.275 88.2096 10.8667 87.993 10.5C87.7763 10.1333 87.4846 9.84167 87.118 9.62501C86.7513 9.40834 86.3513 9.30001 85.918 9.30001C85.4846 9.30001 85.0846 9.40834 84.718 9.62501C84.368 9.84167 84.0846 10.1333 83.868 10.5C83.668 10.8667 83.568 11.275 83.568 11.725L83.568 25L81.168 25L81.168 12.05C81.168 11.1333 81.368 10.3083 81.768 9.57501C82.168 8.84167 82.7263 8.26667 83.443 7.85001C84.1596 7.41667 84.9846 7.20001 85.918 7.20001C86.868 7.20001 87.7013 7.41667 88.418 7.85001C89.1346 8.26667 89.693 8.84167 90.093 9.57501C90.493 10.3083 90.693 11.1333 90.693 12.05L90.693 20.75C90.693 21.2167 90.8013 21.6333 91.018 22C91.2346 22.35 91.518 22.6333 91.868 22.85C92.2346 23.0667 92.6263 23.175 93.043 23.175C93.4596 23.175 93.843 23.0667 94.193 22.85C94.543 22.6333 94.818 22.35 95.018 22C95.2346 21.6333 95.343 21.2167 95.343 20.75L95.343 12.05C95.343 11.1333 95.543 10.3083 95.943 9.57501C96.3596 8.84168 96.9263 8.26668 97.643 7.85001C98.3596 7.41668 99.193 7.20001 100.143 7.20001C101.076 7.20001 101.901 7.41668 102.618 7.85001C103.335 8.26668 103.893 8.84168 104.293 9.57501C104.693 10.3083 104.893 11.1333 104.893 12.05L104.893 25L102.493 25L102.493 11.725C102.493 11.275 102.385 10.8667 102.168 10.5C101.968 10.1333 101.685 9.84168 101.318 9.62501C100.968 9.40834 100.576 9.30001 100.143 9.30001C99.693 9.30001 99.2846 9.40834 98.918 9.62501C98.568 9.84168 98.2846 10.1333 98.068 10.5C97.8513 10.8667 97.743 11.275 97.743 11.725L97.743 20.425C97.743 21.3917 97.5346 22.2417 97.118 22.975C96.718 23.6917 96.1596 24.2583 95.443 24.675C94.743 25.0917 93.943 25.3 93.043 25.3ZM114.94 25C113.54 25 112.298 24.7417 111.215 24.225C110.131 23.6917 109.281 22.95 108.665 22C108.065 21.0333 107.765 19.9083 107.765 18.625C107.765 17.3583 108.023 16.225 108.54 15.225C109.056 14.2083 109.773 13.4083 110.69 12.825C111.606 12.2417 112.673 11.95 113.89 11.95C115.206 11.95 116.298 12.2333 117.165 12.8C118.048 13.3667 118.706 14.1333 119.14 15.1C119.573 16.05 119.79 17.1167 119.79 18.3C119.79 18.4833 119.781 18.675 119.765 18.875C119.765 19.075 119.748 19.25 119.715 19.4L110.215 19.4C110.298 20.1833 110.556 20.85 110.99 21.4C111.423 21.9333 111.973 22.3417 112.64 22.625C113.323 22.8917 114.073 23.025 114.89 23.025L118.215 23.025L118.215 25L114.94 25ZM110.19 17.775L117.465 17.775C117.465 17.4583 117.431 17.125 117.365 16.775C117.298 16.4083 117.181 16.0583 117.015 15.725C116.848 15.375 116.623 15.0667 116.34 14.8C116.073 14.5167 115.731 14.2917 115.315 14.125C114.915 13.9583 114.44 13.875 113.89 13.875C113.306 13.875 112.79 13.9917 112.34 14.225C111.906 14.4417 111.531 14.7417 111.215 15.125C110.898 15.4917 110.656 15.9083 110.49 16.375C110.323 16.8417 110.223 17.3083 110.19 17.775ZM128.597 25.3C127.631 25.3 126.747 25.15 125.947 24.85C125.147 24.5333 124.456 24.075 123.872 23.475C123.289 22.875 122.831 22.1583 122.497 21.325C122.181 20.475 122.022 19.525 122.022 18.475C122.022 17.1417 122.289 15.9917 122.822 15.025C123.372 14.0417 124.114 13.2833 125.047 12.75C125.997 12.2167 127.056 11.95 128.222 11.95C128.872 11.95 129.489 12.0583 130.072 12.275C130.672 12.4917 131.206 12.7917 131.672 13.175C132.139 13.5583 132.506 14.0083 132.772 14.525L132.822 14.525L132.822 6.75002L135.122 6.75002L135.122 18.55C135.122 19.9667 134.831 21.1833 134.247 22.2C133.681 23.2 132.906 23.9667 131.922 24.5C130.956 25.0333 129.847 25.3 128.597 25.3ZM128.597 23.325C129.381 23.325 130.089 23.1333 130.722 22.75C131.356 22.3667 131.856 21.825 132.222 21.125C132.606 20.425 132.797 19.6 132.797 18.65C132.797 17.6833 132.606 16.85 132.222 16.15C131.856 15.4333 131.356 14.8833 130.722 14.5C130.089 14.1167 129.372 13.925 128.572 13.925C127.789 13.925 127.072 14.125 126.422 14.525C125.789 14.925 125.281 15.475 124.897 16.175C124.531 16.875 124.347 17.6917 124.347 18.625C124.347 19.5917 124.539 20.425 124.922 21.125C125.306 21.825 125.814 22.3667 126.447 22.75C127.097 23.1333 127.814 23.325 128.597 23.325ZM138.689 25L138.689 12.25L141.014 12.25L141.014 25L138.689 25ZM139.864 10.225C139.448 10.225 139.081 10.075 138.764 9.77502C138.464 9.45835 138.314 9.09168 138.314 8.67502C138.314 8.25835 138.464 7.90002 138.764 7.60002C139.081 7.28335 139.448 7.12502 139.864 7.12502C140.281 7.12502 140.639 7.28335 140.939 7.60002C141.256 7.90002 141.414 8.25835 141.414 8.67502C141.414 9.09168 141.256 9.45835 140.939 9.77502C140.639 10.075 140.281 10.225 139.864 10.225ZM150.821 25C149.505 25 148.33 24.7167 147.296 24.15C146.263 23.5834 145.446 22.825 144.846 21.875C144.246 20.9084 143.946 19.825 143.946 18.625C143.946 17.425 144.246 16.35 144.846 15.4C145.446 14.4334 146.263 13.6667 147.296 13.1C148.33 12.5334 149.505 12.25 150.821 12.25L152.321 12.25L152.321 14.225L150.746 14.225C149.896 14.225 149.13 14.425 148.446 14.825C147.78 15.2084 147.246 15.7334 146.846 16.4C146.463 17.0667 146.271 17.8084 146.271 18.625C146.271 19.4417 146.463 20.1834 146.846 20.85C147.246 21.5167 147.78 22.05 148.446 22.45C149.13 22.8334 149.896 23.025 150.746 23.025L152.321 23.025L152.321 25L150.821 25ZM160.249 25.3C159.016 25.3 157.949 25.0084 157.049 24.425C156.149 23.825 155.457 23.0167 154.974 22C154.491 20.9834 154.249 19.8584 154.249 18.625C154.249 17.375 154.516 16.25 155.049 15.25C155.582 14.2334 156.349 13.4334 157.349 12.85C158.349 12.25 159.549 11.95 160.949 11.95C162.299 11.95 163.457 12.2417 164.424 12.825C165.391 13.4084 166.132 14.2 166.649 15.2C167.182 16.2 167.449 17.3167 167.449 18.55L167.449 25L165.124 25L165.124 22.4L165.074 22.4C164.824 22.8834 164.482 23.35 164.049 23.8C163.632 24.2334 163.107 24.5917 162.474 24.875C161.841 25.1584 161.099 25.3 160.249 25.3ZM160.849 23.325C161.682 23.325 162.416 23.125 163.049 22.725C163.699 22.3084 164.199 21.7417 164.549 21.025C164.916 20.2917 165.099 19.475 165.099 18.575C165.099 17.6917 164.924 16.9 164.574 16.2C164.241 15.5 163.757 14.95 163.124 14.55C162.491 14.1334 161.749 13.925 160.899 13.925C159.999 13.925 159.224 14.1334 158.574 14.55C157.941 14.9667 157.449 15.5334 157.099 16.25C156.766 16.95 156.599 17.75 156.599 18.65C156.599 19.5167 156.766 20.3084 157.099 21.025C157.432 21.725 157.916 22.2834 158.549 22.7C159.182 23.1167 159.949 23.325 160.849 23.325ZM171.111 25L171.111 6.75002L173.411 6.75002L173.411 25L171.111 25Z" fill="#0152A8"/>
<path d="M28.0021 6.04742C26.516 4.56599 24.5032 3.73413 22.4049 3.73413C20.3065 3.73413 18.2938 4.56599 16.8077 6.04742L2.55477 20.3003C1.0703 21.7848 0.236328 23.7982 0.236328 25.8975C0.236328 27.9969 1.0703 30.0103 2.55477 31.4948C4.03925 32.9792 6.05263 33.8132 8.152 33.8132C10.2514 33.8132 12.2647 32.9792 13.7492 31.4948L28.0021 17.2419C29.4799 15.7539 30.3093 13.7418 30.3093 11.6446C30.3093 9.54748 29.4799 7.53542 28.0021 6.04742ZM26.3096 15.5493L20.0294 21.8444L12.2052 14.0201L18.5002 7.73995C19.01 7.22192 19.6178 6.81052 20.2882 6.5297C20.9585 6.24887 21.6781 6.10425 22.4049 6.10425C23.1317 6.10425 23.8512 6.24887 24.5216 6.5297C25.192 6.81052 25.7998 7.22192 26.3096 7.73995C26.824 8.25178 27.2322 8.86023 27.5108 9.53033C27.7894 10.2004 27.9328 10.919 27.9328 11.6446C27.9328 12.3703 27.7894 13.0889 27.5108 13.759C27.2322 14.4291 26.824 15.0375 26.3096 15.5493ZM24.5131 12.0752C24.623 12.1864 24.7095 12.3185 24.7676 12.4636C24.8257 12.6087 24.8542 12.764 24.8515 12.9203C24.8487 13.0766 24.8147 13.2308 24.7515 13.3737C24.6883 13.5167 24.5972 13.6456 24.4834 13.7529L20.8608 17.2567C20.7496 17.3666 20.6176 17.4531 20.4724 17.5112C20.3273 17.5693 20.172 17.5978 20.0157 17.5951C19.8594 17.5923 19.7052 17.5583 19.5623 17.4951C19.4193 17.4319 19.2904 17.3408 19.1831 17.227C19.0733 17.1158 18.9867 16.9838 18.9286 16.8386C18.8705 16.6935 18.842 16.5382 18.8448 16.3819C18.8475 16.2256 18.8815 16.0715 18.9447 15.9285C19.0079 15.7855 19.0991 15.6566 19.2128 15.5493L22.8354 12.0455C23.062 11.8273 23.3659 11.7078 23.6804 11.7134C23.9949 11.719 24.2944 11.8491 24.5131 12.0752Z" fill="#0FE3AF"/>
</svg>
