<svg width="162" height="33" viewBox="0 0 162 33" fill="none" xmlns="http://www.w3.org/2000/svg">
<path d="M42.1811 7.775C42.1811 7.40833 42.2394 7.05 42.3561 6.7C44.1061 6.91667 46.1061 7.025 48.3561 7.025C50.6061 7.025 52.9227 6.80833 55.3061 6.375C55.0727 7.925 54.1061 8.76667 52.4061 8.9C51.5227 8.98333 50.6311 9.05 49.7311 9.1C49.7144 9.75 49.4311 12 48.8811 15.85C48.3477 19.7 48.0811 22.35 48.0811 23.8C48.0811 25.2333 48.1977 26.225 48.4311 26.775C47.3977 26.4083 46.6644 25.9167 46.2311 25.3C45.8144 24.6667 45.6061 23.9167 45.6061 23.05C45.6061 22.1667 45.8227 20.1333 46.2561 16.95C46.7061 13.75 46.9644 11.175 47.0311 9.225C45.5811 9.275 44.3311 9.3 43.2811 9.3C42.5477 9.3 42.1811 8.79167 42.1811 7.775ZM66.2033 26C66.1367 26.05 65.92 26.1167 65.5533 26.2C65.2033 26.3 64.87 26.35 64.5533 26.35C64.2533 26.35 64.0783 26.225 64.0283 25.975C63.795 24.9417 63.52 23.325 63.2033 21.125C62.8867 18.925 62.67 17.4917 62.5533 16.825C62.22 17.575 61.5117 19.05 60.4283 21.25C59.3616 23.45 58.6366 25.0333 58.2533 26C58.17 26.0667 57.9866 26.1417 57.7033 26.225C57.4366 26.3083 57.1533 26.35 56.8533 26.35C56.5533 26.35 56.3783 26.225 56.3283 25.975C56.0783 24.9083 55.8116 23.3167 55.5283 21.2C55.245 19.0667 54.945 17.2083 54.6283 15.625C54.3117 14.025 53.9117 12.8167 53.4283 12C54.0617 11.5667 54.5867 11.35 55.0033 11.35C55.4367 11.35 55.7867 11.45 56.0533 11.65C56.3367 11.8333 56.5617 12.1333 56.7283 12.55C56.9117 12.95 57.0533 13.4 57.1533 13.9C57.2533 14.3833 57.3367 15.0083 57.4033 15.775C57.47 16.525 57.5283 17.25 57.5783 17.95C57.7283 20.1833 57.8867 21.9917 58.0533 23.375C59.97 18.925 61.2117 15.6333 61.7783 13.5C61.595 12.9667 61.3783 12.4667 61.1283 12C61.7617 11.5667 62.2867 11.35 62.7033 11.35C63.12 11.35 63.4617 11.45 63.7283 11.65C63.995 11.8333 64.2117 12.1333 64.3783 12.55C64.545 12.95 64.6783 13.4 64.7783 13.9C64.895 14.3833 64.9867 15.0083 65.0533 15.775C65.1367 16.525 65.2033 17.25 65.2533 17.95C65.3867 19.9 65.5533 21.7083 65.7533 23.375C66.5867 21.425 67.22 19.9333 67.6533 18.9C68.0867 17.85 68.5533 16.5167 69.0533 14.9C69.5533 13.2833 69.8117 11.9917 69.8283 11.025C70.8617 11.525 71.3783 12.3333 71.3783 13.45C71.3783 14.2 71.0783 15.225 70.4783 16.525C69.895 17.825 69.1533 19.3833 68.2533 21.2C67.3533 23 66.67 24.6 66.2033 26ZM82.726 17.8C82.726 16.1667 82.5176 15 82.101 14.3C81.701 13.5833 81.1176 13.225 80.351 13.225C79.601 13.225 78.8426 13.6 78.076 14.35C77.3093 15.0833 76.701 16 76.251 17.1C75.8176 18.1833 75.601 19.3167 75.601 20.5C75.601 21.6667 75.826 22.6833 76.276 23.55C76.726 24.4 77.4093 24.825 78.326 24.825C79.626 24.825 80.6843 24.0583 81.501 22.525C82.3176 20.9917 82.726 19.4167 82.726 17.8ZM75.476 16.825C76.1093 15.025 76.9593 13.7167 78.026 12.9C79.1093 12.0667 80.201 11.65 81.301 11.65C82.4176 11.65 83.3426 12.1417 84.076 13.125C84.8093 14.0917 85.176 15.4083 85.176 17.075C85.176 18.9083 84.826 20.6083 84.126 22.175C83.3426 23.9083 82.2093 25.1167 80.726 25.8C79.926 26.1833 79.0426 26.375 78.076 26.375C76.726 26.375 75.5426 25.8167 74.526 24.7C73.5093 23.5667 73.001 21.9583 73.001 19.875C73.001 17.775 73.451 15.9583 74.351 14.425C75.251 12.8917 76.476 11.825 78.026 11.225C78.3593 11.225 78.526 11.3917 78.526 11.725C76.876 12.8083 75.8593 14.5083 75.476 16.825ZM91.7557 18.275C92.3057 16.3917 93.1473 14.8083 94.2807 13.525C95.4307 12.225 96.5057 11.575 97.5057 11.575C98.5057 11.575 99.214 11.8833 99.6307 12.5C100.047 13.1 100.256 13.925 100.256 14.975C100.256 16.0083 100.089 17.4667 99.7557 19.35C99.439 21.2333 99.2807 22.6083 99.2807 23.475C99.2807 24.325 99.389 24.95 99.6057 25.35C99.8223 25.7333 100.189 26.0667 100.706 26.35C100.489 26.3667 100.181 26.375 99.7807 26.375C98.714 26.375 97.9223 26.1583 97.4057 25.725C96.9057 25.275 96.6557 24.5167 96.6557 23.45C96.6557 22.8333 96.8223 21.5917 97.1557 19.725C97.489 17.8417 97.6557 16.4583 97.6557 15.575C97.6557 14.475 97.2723 13.925 96.5057 13.925C96.0557 13.925 95.5557 14.1667 95.0057 14.65C94.4557 15.1167 93.9223 15.7583 93.4057 16.575C92.9057 17.375 92.4807 18.4 92.1307 19.65C91.7973 20.8833 91.6307 22.1083 91.6307 23.325C91.6307 24.525 91.6807 25.4167 91.7807 26C91.3807 26.0333 91.1557 26.05 91.1057 26.05C90.3223 26.05 89.739 25.8833 89.3557 25.55C88.989 25.2167 88.8057 24.7 88.8057 24C88.8057 23.2833 88.9557 21.9167 89.2557 19.9C90.139 13.7 90.5807 8.99167 90.5807 5.77501C90.5807 4.32501 90.4807 3.35001 90.2807 2.85001C91.2473 3.20001 91.9223 3.71667 92.3057 4.40001C92.7057 5.08334 92.9057 6.02501 92.9057 7.22501C92.9057 8.05834 92.739 9.80834 92.4057 12.475C92.089 15.1417 91.8723 17.075 91.7557 18.275ZM107.858 16.225C107.375 17.0583 107 17.9167 106.733 18.8C106.483 19.6667 106.358 20.5 106.358 21.3C106.358 22.1 106.533 22.7833 106.883 23.35C107.25 23.9 107.766 24.175 108.433 24.175C109.366 24.175 110.241 23.6667 111.058 22.65C111.875 21.6167 112.5 20.375 112.933 18.925C113.383 17.4583 113.608 16.1083 113.608 14.875C113.608 13.625 113.558 12.6 113.458 11.8C113.858 11.7667 114.108 11.75 114.208 11.75C115.625 11.75 116.333 12.475 116.333 13.925C116.333 14.2417 116.133 15.5333 115.733 17.8C115.333 20.05 115.133 21.8583 115.133 23.225C115.133 24.575 115.391 25.775 115.908 26.825C114.858 26.6083 114.091 26.15 113.608 25.45C113.141 24.7333 112.908 23.7083 112.908 22.375C112.908 22.1417 112.941 21.6917 113.008 21.025C112.558 22.6083 111.766 23.8833 110.633 24.85C109.5 25.8167 108.383 26.3 107.283 26.3C106.2 26.3 105.325 25.8917 104.658 25.075C103.991 24.2417 103.658 23.1 103.658 21.65C103.658 20.1833 103.925 18.7583 104.458 17.375C105.008 15.975 105.825 14.7667 106.908 13.75C108.008 12.7333 109.233 12.225 110.583 12.225C111.166 12.225 111.808 12.3417 112.508 12.575C111.525 12.825 110.625 13.2833 109.808 13.95C108.991 14.6167 108.341 15.375 107.858 16.225ZM131.777 15.125C131.777 15.8917 131.61 17.25 131.277 19.2C130.96 21.1333 130.802 22.5417 130.802 23.425C130.802 24.3083 130.91 24.95 131.127 25.35C131.344 25.7333 131.71 26.0667 132.227 26.35C132.01 26.3667 131.702 26.375 131.302 26.375C130.169 26.375 129.36 26.1667 128.877 25.75C128.41 25.3167 128.177 24.55 128.177 23.45C128.177 22.8333 128.344 21.5917 128.677 19.725C129.01 17.8417 129.177 16.4583 129.177 15.575C129.177 14.475 128.844 13.925 128.177 13.925C127.11 13.925 126.002 14.8667 124.852 16.75C123.719 18.6333 123.152 20.9 123.152 23.55C123.152 24.6 123.202 25.4167 123.302 26C122.869 26.0333 122.61 26.05 122.527 26.05C121.06 26.05 120.327 25.3333 120.327 23.9C120.327 23.5667 120.502 22.2833 120.852 20.05C121.202 17.8167 121.377 16.0417 121.377 14.725C121.377 13.3917 121.235 12.1667 120.952 11.05C121.935 11.4333 122.619 11.9833 123.002 12.7C123.402 13.4 123.602 14.2083 123.602 15.125C123.602 16.025 123.502 17.075 123.302 18.275C123.852 16.3917 124.71 14.8083 125.877 13.525C127.06 12.225 128.16 11.575 129.177 11.575C130.91 11.575 131.777 12.7583 131.777 15.125ZM137.827 20.95C137.827 21.9 138.01 22.675 138.377 23.275C138.743 23.875 139.31 24.175 140.077 24.175C140.86 24.175 141.568 23.8334 142.202 23.15C142.852 22.45 143.368 21.5167 143.752 20.35C144.152 19.1667 144.493 17.9167 144.777 16.6C145.077 15.2667 145.293 13.85 145.427 12.35C145.677 9.56668 145.802 7.35835 145.802 5.72502C145.802 4.09168 145.735 2.87502 145.602 2.07502C147.318 2.62502 148.177 4.35002 148.177 7.25002C148.177 8.43335 147.893 10.8167 147.327 14.4C146.777 17.9834 146.502 20.6 146.502 22.25C146.502 23.9 146.577 25.3 146.727 26.45C145.777 26.1334 145.127 25.5667 144.777 24.75C144.427 23.9334 144.252 22.8917 144.252 21.625C143.735 23.0584 142.968 24.1917 141.952 25.025C140.935 25.8584 139.877 26.275 138.777 26.275C137.693 26.275 136.81 25.8584 136.127 25.025C135.46 24.175 135.127 22.9333 135.127 21.3C135.127 18.5833 135.835 16.35 137.252 14.6C138.685 12.85 140.46 11.975 142.577 11.975C143.177 11.975 143.818 12.0667 144.502 12.25C143.368 12.4334 142.352 12.85 141.452 13.5C140.552 14.1334 139.852 14.8834 139.352 15.75C138.335 17.5167 137.827 19.25 137.827 20.95ZM156.332 12.8C155.782 12.8 155.282 12.975 154.832 13.325C154.399 13.675 154.182 14.1584 154.182 14.775C154.182 15.375 154.382 15.9417 154.782 16.475C155.198 17.0084 155.698 17.4834 156.282 17.9C156.865 18.3167 157.457 18.7417 158.057 19.175C159.457 20.2084 160.157 21.3167 160.157 22.5C160.157 23.6834 159.682 24.65 158.732 25.4C157.782 26.1334 156.565 26.5 155.082 26.5C153.615 26.5 152.473 26.2084 151.657 25.625C150.857 25.0417 150.457 24.3584 150.457 23.575C150.457 22.775 150.657 22.15 151.057 21.7C151.457 21.25 151.94 21.025 152.507 21.025C152.807 21.025 153.09 21.0917 153.357 21.225C152.99 21.6917 152.807 22.2417 152.807 22.875C152.807 23.5084 152.998 24.0417 153.382 24.475C153.782 24.9084 154.323 25.125 155.007 25.125C155.707 25.125 156.298 24.95 156.782 24.6C157.265 24.2334 157.507 23.775 157.507 23.225C157.507 22.675 157.365 22.1917 157.082 21.775C156.798 21.3584 156.44 21 156.007 20.7C155.59 20.4 155.132 20.0667 154.632 19.7C154.132 19.3334 153.665 18.975 153.232 18.625C152.815 18.2584 152.465 17.8084 152.182 17.275C151.898 16.725 151.757 16.125 151.757 15.475C151.757 14.2917 152.207 13.325 153.107 12.575C154.007 11.8084 155.14 11.425 156.507 11.425C157.874 11.425 158.874 11.7084 159.507 12.275C160.14 12.8417 160.457 13.4834 160.457 14.2C160.457 14.9 160.282 15.4834 159.932 15.95C159.582 16.4 159.132 16.625 158.582 16.625C158.315 16.625 158.007 16.55 157.657 16.4C158.09 15.8667 158.307 15.2917 158.307 14.675C158.307 14.0584 158.115 13.5917 157.732 13.275C157.365 12.9584 156.899 12.8 156.332 12.8Z" fill="#0152A8"/>
<path d="M33.0435 12.6918V20.1568C33.0435 20.8167 32.7813 21.4497 32.3146 21.9163C31.848 22.383 31.2151 22.6451 30.5551 22.6451H23.0902V30.1101C23.0902 30.77 22.828 31.4029 22.3614 31.8696C21.8947 32.3362 21.2618 32.5984 20.6019 32.5984H13.1369C12.477 32.5984 11.8441 32.3362 11.3774 31.8696C10.9108 31.4029 10.6486 30.77 10.6486 30.1101V22.6451H3.18363C2.52369 22.6451 1.89077 22.383 1.42412 21.9163C0.957474 21.4497 0.695313 20.8167 0.695312 20.1568V12.6918C0.695312 12.0319 0.957474 11.399 1.42412 10.9323C1.89077 10.4657 2.52369 10.2035 3.18363 10.2035H10.6486V2.73856C10.6486 2.07862 10.9108 1.44571 11.3774 0.979056C11.8441 0.512405 12.477 0.250244 13.1369 0.250244H20.6019C21.2618 0.250244 21.8947 0.512405 22.3614 0.979056C22.828 1.44571 23.0902 2.07862 23.0902 2.73856V10.2035H30.5551C31.2151 10.2035 31.848 10.4657 32.3146 10.9323C32.7813 11.399 33.0435 12.0319 33.0435 12.6918Z" fill="#0FE3AF"/>
</svg>
