<svg width="216" height="33" viewBox="0 0 216 33" fill="none" xmlns="http://www.w3.org/2000/svg">
<path d="M52.9305 25.0269L52.9305 6.77686L55.1805 6.77686L55.1805 14.5769L61.0305 14.5769L61.0305 6.77686L63.2805 6.77686L63.2805 25.0269L61.0305 25.0269L61.0305 16.6269L55.1805 16.6269L55.1805 25.0269L52.9305 25.0269ZM73.0957 25.2769C72.0124 25.2769 71.0624 25.0602 70.2457 24.6269C69.4457 24.1935 68.8207 23.5852 68.3707 22.8019C67.9374 22.0019 67.7207 21.0769 67.7207 20.0269L67.7207 16.2769C67.7207 15.2102 67.9374 14.2852 68.3707 13.5019C68.8207 12.7185 69.4457 12.1102 70.2457 11.6769C71.0624 11.2435 72.0124 11.0269 73.0957 11.0269C74.179 11.0269 75.1207 11.2435 75.9207 11.6769C76.7374 12.1102 77.3624 12.7185 77.7957 13.5019C78.2457 14.2852 78.4707 15.2102 78.4707 16.2769L78.4707 18.7019L69.9207 18.7019L69.9207 20.0269C69.9207 21.1102 70.1957 21.9435 70.7457 22.5269C71.2957 23.0935 72.079 23.3769 73.0957 23.3769C73.9624 23.3769 74.6624 23.2269 75.1957 22.9269C75.729 22.6102 76.054 22.1435 76.1707 21.5269L78.4207 21.5269C78.2707 22.6769 77.704 23.5935 76.7207 24.2769C75.754 24.9435 74.5457 25.2769 73.0957 25.2769ZM76.2707 17.2019L76.2707 16.2769C76.2707 15.1935 75.9957 14.3602 75.4457 13.7769C74.9124 13.1935 74.129 12.9019 73.0957 12.9019C72.079 12.9019 71.2957 13.1935 70.7457 13.7769C70.1957 14.3602 69.9207 15.1935 69.9207 16.2769L69.9207 17.0019L76.4457 17.0019L76.2707 17.2019ZM86.8859 25.2769C85.4359 25.2769 84.2943 24.9102 83.4609 24.1769C82.6276 23.4269 82.2109 22.4185 82.2109 21.1519C82.2109 19.8685 82.6276 18.8602 83.4609 18.1269C84.2943 17.3935 85.4193 17.0269 86.8359 17.0269L91.0859 17.0269L91.0859 15.6519C91.0859 14.8019 90.8276 14.1519 90.3109 13.7019C89.8109 13.2352 89.0943 13.0019 88.1609 13.0019C87.3443 13.0019 86.6609 13.1769 86.1109 13.5269C85.5609 13.8602 85.2443 14.3185 85.1609 14.9019L82.9109 14.9019C83.0609 13.7185 83.6193 12.7769 84.5859 12.0769C85.5526 11.3769 86.7609 11.0269 88.2109 11.0269C89.7943 11.0269 91.0443 11.4352 91.9609 12.2519C92.8776 13.0685 93.3359 14.1769 93.3359 15.5769L93.3359 25.0269L91.1359 25.0269L91.1359 22.4019L90.7609 22.4019L91.1359 22.0269C91.1359 23.0269 90.7443 23.8185 89.9609 24.4019C89.1943 24.9852 88.1693 25.2769 86.8859 25.2769ZM87.4359 23.5019C88.5026 23.5019 89.3776 23.2352 90.0609 22.7019C90.7443 22.1685 91.0859 21.4852 91.0859 20.6519L91.0859 18.7019L86.8859 18.7019C86.1359 18.7019 85.5443 18.9102 85.1109 19.3269C84.6776 19.7435 84.4609 20.3102 84.4609 21.0269C84.4609 21.7935 84.7193 22.4019 85.2359 22.8519C85.7693 23.2852 86.5026 23.5019 87.4359 23.5019ZM104.951 25.0269C104.151 25.0269 103.451 24.8685 102.851 24.5519C102.251 24.2352 101.785 23.7852 101.451 23.2019C101.118 22.6185 100.951 21.9352 100.951 21.1519L100.951 8.82686L96.3262 8.82686L96.3262 6.77686L103.201 6.77686L103.201 21.1519C103.201 21.7185 103.36 22.1685 103.676 22.5019C103.993 22.8185 104.418 22.9769 104.951 22.9769L109.326 22.9769L109.326 25.0269L104.951 25.0269ZM119.566 25.0269C118.383 25.0269 117.458 24.7102 116.791 24.0769C116.141 23.4435 115.816 22.5519 115.816 21.4019L115.816 13.3269L111.941 13.3269L111.941 11.2769L115.816 11.2769L115.816 7.40187L118.066 7.40187L118.066 11.2769L123.566 11.2769L123.566 13.3269L118.066 13.3269L118.066 21.4019C118.066 22.4519 118.566 22.9769 119.566 22.9769L123.316 22.9769L123.316 25.0269L119.566 25.0269ZM127.857 25.0269L127.857 6.77687L130.107 6.77687L130.107 11.2769L130.107 13.9019L130.582 13.9019L130.107 14.4269C130.107 13.3435 130.432 12.5102 131.082 11.9269C131.732 11.3269 132.632 11.0269 133.782 11.0269C135.165 11.0269 136.265 11.4519 137.082 12.3019C137.898 13.1519 138.307 14.3102 138.307 15.7769L138.307 25.0269L136.057 25.0269L136.057 16.0269C136.057 15.0435 135.79 14.2852 135.257 13.7519C134.74 13.2019 134.032 12.9269 133.132 12.9269C132.198 12.9269 131.457 13.2185 130.907 13.8019C130.373 14.3852 130.107 15.2102 130.107 16.2769L130.107 25.0269L127.857 25.0269ZM163.137 25.2769C162.037 25.2769 161.079 25.0685 160.262 24.6519C159.462 24.2352 158.837 23.6352 158.387 22.8519C157.954 22.0519 157.737 21.1102 157.737 20.0269L157.737 11.7769C157.737 10.6769 157.954 9.73521 158.387 8.95187C158.837 8.16854 159.462 7.56854 160.262 7.15187C161.079 6.73521 162.037 6.52687 163.137 6.52687C164.237 6.52688 165.187 6.74354 165.987 7.17687C166.787 7.59354 167.404 8.19354 167.837 8.97688C168.27 9.76021 168.487 10.6935 168.487 11.7769L166.237 11.7769C166.237 10.7435 165.962 9.95188 165.412 9.40188C164.879 8.83521 164.12 8.55187 163.137 8.55187C162.154 8.55187 161.379 8.82687 160.812 9.37687C160.262 9.92687 159.987 10.7185 159.987 11.7519L159.987 20.0269C159.987 21.0602 160.262 21.8602 160.812 22.4269C161.379 22.9769 162.154 23.2519 163.137 23.2519C164.12 23.2519 164.879 22.9769 165.412 22.4269C165.962 21.8602 166.237 21.0602 166.237 20.0269L168.487 20.0269C168.487 21.0935 168.27 22.0269 167.837 22.8269C167.404 23.6102 166.787 24.2185 165.987 24.6519C165.187 25.0685 164.237 25.2769 163.137 25.2769ZM176.827 25.2769C175.377 25.2769 174.236 24.9102 173.402 24.1769C172.569 23.4269 172.152 22.4185 172.152 21.1519C172.152 19.8685 172.569 18.8602 173.402 18.1269C174.236 17.3935 175.361 17.0269 176.777 17.0269L181.027 17.0269L181.027 15.6519C181.027 14.8019 180.769 14.1519 180.252 13.7019C179.752 13.2352 179.036 13.0019 178.102 13.0019C177.286 13.0019 176.602 13.1769 176.052 13.5269C175.502 13.8602 175.186 14.3185 175.102 14.9019L172.852 14.9019C173.002 13.7185 173.561 12.7769 174.527 12.0769C175.494 11.3769 176.702 11.0269 178.152 11.0269C179.736 11.0269 180.986 11.4352 181.902 12.2519C182.819 13.0685 183.277 14.1769 183.277 15.5769L183.277 25.0269L181.077 25.0269L181.077 22.4019L180.702 22.4019L181.077 22.0269C181.077 23.0269 180.686 23.8185 179.902 24.4019C179.136 24.9852 178.111 25.2769 176.827 25.2769ZM177.377 23.5019C178.444 23.5019 179.319 23.2352 180.002 22.7019C180.686 22.1685 181.027 21.4852 181.027 20.6519L181.027 18.7019L176.827 18.7019C176.077 18.7019 175.486 18.9102 175.052 19.3269C174.619 19.7435 174.402 20.3102 174.402 21.0269C174.402 21.7935 174.661 22.4019 175.177 22.8519C175.711 23.2852 176.444 23.5019 177.377 23.5019ZM188.293 25.0269L188.293 11.2769L190.493 11.2769L190.493 13.9019L191.018 13.9019L190.293 15.5269C190.293 14.0435 190.609 12.9269 191.243 12.1769C191.893 11.4102 192.851 11.0269 194.118 11.0269C195.568 11.0269 196.718 11.4852 197.568 12.4019C198.434 13.3019 198.868 14.5269 198.868 16.0769L198.868 16.9019L196.618 16.9019L196.618 16.2769C196.618 15.1935 196.351 14.3685 195.818 13.8019C195.301 13.2185 194.559 12.9269 193.593 12.9269C192.643 12.9269 191.893 13.2185 191.343 13.8019C190.809 14.3852 190.543 15.2102 190.543 16.2769L190.543 25.0269L188.293 25.0269ZM208.008 25.2769C206.924 25.2769 205.974 25.0602 205.158 24.6269C204.358 24.1935 203.733 23.5852 203.283 22.8019C202.849 22.0019 202.633 21.0769 202.633 20.0269L202.633 16.2769C202.633 15.2102 202.849 14.2852 203.283 13.5019C203.733 12.7185 204.358 12.1102 205.158 11.6769C205.974 11.2435 206.924 11.0269 208.008 11.0269C209.091 11.0269 210.033 11.2435 210.833 11.6769C211.649 12.1102 212.274 12.7185 212.708 13.5019C213.158 14.2852 213.383 15.2102 213.383 16.2769L213.383 18.7019L204.833 18.7019L204.833 20.0269C204.833 21.1102 205.108 21.9435 205.658 22.5269C206.208 23.0935 206.991 23.3769 208.008 23.3769C208.874 23.3769 209.574 23.2269 210.108 22.9269C210.641 22.6102 210.966 22.1436 211.083 21.5269L213.333 21.5269C213.183 22.6769 212.616 23.5936 211.633 24.2769C210.666 24.9436 209.458 25.2769 208.008 25.2769ZM211.183 17.2019L211.183 16.2769C211.183 15.1935 210.908 14.3602 210.358 13.7769C209.824 13.1935 209.041 12.9019 208.008 12.9019C206.991 12.9019 206.208 13.1935 205.658 13.7769C205.108 14.3602 204.833 15.1935 204.833 16.2769L204.833 17.0019L211.358 17.0019L211.183 17.2019Z" fill="#0152A8"/>
<path d="M36.0432 6.18333H35.8866C35.7593 5.84514 35.5605 5.53846 35.3036 5.28432C35.0468 5.03017 34.738 4.83457 34.3985 4.71092L21.8674 0.152726C21.3111 -0.0509088 20.7006 -0.0509088 20.1443 0.152726L7.61322 4.71092C7.2737 4.83457 6.96493 5.03017 6.70809 5.28432C6.45124 5.53846 6.25238 5.84514 6.12514 6.18333H5.96851C4.64039 6.18746 3.36785 6.71689 2.42873 7.65601C1.48961 8.59513 0.960186 9.86767 0.956055 11.1958L0.956055 14.9551C0.960186 16.2832 1.48961 17.5558 2.42873 18.4949C3.36785 19.434 4.64039 19.9634 5.96851 19.9676H6.78303C7.81685 22.2232 9.80616 24.1968 12.6727 25.7945C15.9777 27.6272 19.5021 28.4574 20.489 28.661L21.0059 28.708L21.5228 28.661C22.5096 28.4574 26.034 27.6272 29.3391 25.7945C32.2056 24.1968 34.1949 22.2232 35.2287 19.9676H36.0432C37.3713 19.9634 38.6439 19.434 39.583 18.4949C40.5221 17.5558 41.0515 16.2832 41.0557 14.9551V11.1958C41.0515 9.86767 40.5221 8.59513 39.583 7.65601C38.6439 6.71689 37.3713 6.18746 36.0432 6.18333ZM5.96851 17.4613C5.30381 17.4613 4.66635 17.1973 4.19634 16.7273C3.72633 16.2573 3.46228 15.6198 3.46228 14.9551V11.1958C3.46228 10.5311 3.72633 9.89362 4.19634 9.42361C4.66635 8.95361 5.30381 8.68956 5.96851 8.68956V16.2082C5.96807 16.6277 5.99949 17.0466 6.06249 17.4613H5.96851ZM27.2714 18.7145H14.7403C14.4079 18.7145 14.0892 18.5824 13.8542 18.3474C13.6192 18.1124 13.4872 17.7937 13.4872 17.4613C13.4872 17.129 13.6192 16.8103 13.8542 16.5753C14.0892 16.3403 14.4079 16.2082 14.7403 16.2082H27.2714C27.6038 16.2082 27.9225 16.3403 28.1575 16.5753C28.3925 16.8103 28.5245 17.129 28.5245 17.4613C28.5245 17.7937 28.3925 18.1124 28.1575 18.3474C27.9225 18.5824 27.6038 18.7145 27.2714 18.7145ZM27.2714 13.702H14.7403C14.4079 13.702 14.0892 13.57 13.8542 13.335C13.6192 13.1 13.4872 12.7812 13.4872 12.4489C13.4872 12.1165 13.6192 11.7978 13.8542 11.5628C14.0892 11.3278 14.4079 11.1958 14.7403 11.1958H27.2714C27.6038 11.1958 27.9225 11.3278 28.1575 11.5628C28.3925 11.7978 28.5245 12.1165 28.5245 12.4489C28.5245 12.7812 28.3925 13.1 28.1575 13.335C27.9225 13.57 27.6038 13.702 27.2714 13.702ZM38.5494 14.9551C38.5494 15.6198 38.2854 16.2573 37.8154 16.7273C37.3454 17.1973 36.7079 17.4613 36.0432 17.4613H35.9492C36.0122 17.0466 36.0436 16.6277 36.0432 16.2082V8.68956C36.7079 8.68956 37.3454 8.95361 37.8154 9.42361C38.2854 9.89362 38.5494 10.5311 38.5494 11.1958V14.9551Z" fill="#0FE3AF"/>
</svg>
