<svg width="196" height="33" viewBox="0 0 196 33" fill="none" xmlns="http://www.w3.org/2000/svg">
<path d="M49.2993 23.8901C48.8599 23.8901 48.4408 23.9105 48.042 23.9512C47.6432 23.9837 47.2038 24 46.7236 24L46.2353 24C46.1621 24 46.1092 23.9552 46.0767 23.8657C46.0441 23.7681 46.0278 23.6948 46.0278 23.646C46.0278 23.5646 46.036 23.4954 46.0522 23.4385C46.0767 23.3734 46.1173 23.3368 46.1743 23.3286C46.2638 23.3042 46.3696 23.2839 46.4917 23.2676C46.6138 23.2513 46.7399 23.2391 46.8701 23.231C47.0003 23.2147 47.1224 23.2065 47.2363 23.2065C47.3584 23.1984 47.4642 23.1943 47.5537 23.1943C47.749 23.1943 47.9362 23.1496 48.1152 23.0601C48.3024 22.9705 48.453 22.8607 48.5669 22.7305C48.6483 22.6247 48.7174 22.5229 48.7744 22.4253C48.8314 22.3195 48.8802 22.1771 48.9209 21.998C48.9697 21.819 49.0063 21.5871 49.0308 21.3022C49.0633 21.0174 49.0959 20.6431 49.1284 20.1792L49.7021 9.70557C49.7021 9.45329 49.6737 9.20101 49.6167 8.94873C49.5597 8.68831 49.4661 8.44824 49.3359 8.22852C49.2139 8.00065 49.0511 7.80534 48.8477 7.64258C48.6442 7.47982 48.396 7.36589 48.103 7.30078C48.0786 7.29264 48.0135 7.28451 47.9077 7.27637C47.8019 7.26009 47.688 7.24382 47.5659 7.22754C47.4438 7.21126 47.3299 7.19906 47.2241 7.19092C47.1183 7.17464 47.0492 7.1665 47.0166 7.1665C46.8538 7.13395 46.7236 7.1014 46.626 7.06885C46.5365 7.0363 46.4917 6.93457 46.4917 6.76367C46.4917 6.69043 46.4958 6.62126 46.5039 6.55615C46.512 6.48291 46.5446 6.44629 46.6016 6.44629L47.102 6.44629C47.3136 6.44629 47.509 6.45443 47.688 6.4707C47.8752 6.48698 48.0623 6.50732 48.2495 6.53174C48.4367 6.55615 48.632 6.5765 48.8354 6.59277C49.047 6.60905 49.279 6.61719 49.5312 6.61719L50.6909 6.61719C50.8293 6.61719 50.9554 6.60905 51.0693 6.59277C51.1914 6.56836 51.3501 6.55615 51.5454 6.55615C51.6919 6.55615 51.8465 6.5765 52.0093 6.61719C52.172 6.64974 52.29 6.72298 52.3633 6.83692C52.5016 6.99968 52.6196 7.18278 52.7173 7.38623C52.8149 7.58154 52.9004 7.78906 52.9736 8.00879L57.0752 18.7998C57.1077 18.8812 57.1403 18.9504 57.1728 19.0073C57.2054 19.0562 57.242 19.0806 57.2827 19.0806C57.3397 19.0806 57.3844 19.048 57.417 18.9829C57.4495 18.9178 57.474 18.8568 57.4902 18.7998L62.1045 6.70264C62.1533 6.61312 62.2225 6.55616 62.312 6.53174C62.4097 6.50733 62.5155 6.49512 62.6294 6.49512C63.0363 6.49512 63.4269 6.48698 63.8013 6.47071C64.1838 6.45443 64.5622 6.43409 64.9365 6.40967C65.319 6.38526 65.7015 6.36491 66.084 6.34864C66.4746 6.33236 66.8856 6.32422 67.3169 6.32422C67.3413 6.32422 67.3739 6.32422 67.4145 6.32422C67.4634 6.32422 67.5081 6.33236 67.5488 6.34864C67.5977 6.35677 67.6383 6.37305 67.6709 6.39746C67.7034 6.42188 67.7197 6.45443 67.7197 6.49512C67.7197 6.60905 67.6709 6.72705 67.5732 6.84912C67.4756 6.96306 67.3535 7.02002 67.207 7.02002C66.8001 7.02002 66.4624 7.06885 66.1938 7.16651C65.9253 7.26416 65.6527 7.46355 65.376 7.76465C65.2539 7.88672 65.1562 8.02507 65.083 8.17969C65.0098 8.33431 64.9487 8.50114 64.8999 8.68018C64.8592 8.85108 64.8307 9.03011 64.8145 9.21729C64.8063 9.39632 64.8022 9.57129 64.8022 9.74219L64.9976 22.7793C65.0545 22.9502 65.1929 23.0682 65.4126 23.1333C65.6323 23.1984 65.8765 23.2432 66.145 23.2676C66.4136 23.2839 66.674 23.3001 66.9263 23.3164C67.1867 23.3245 67.3861 23.3612 67.5244 23.4263C67.6221 23.467 67.679 23.5199 67.6953 23.585C67.7116 23.6419 67.7197 23.6948 67.7197 23.7437C67.7197 23.8739 67.6505 23.9552 67.5122 23.9878C67.382 24.0122 67.203 24.0244 66.9751 24.0244C66.7147 24.0244 66.4705 24.0203 66.2427 24.0122C66.0148 24.0041 65.7869 24 65.5591 24C65.3394 23.9919 65.1074 23.9837 64.8633 23.9756C64.6191 23.9675 64.3465 23.9634 64.0454 23.9634L62.1777 23.9634C61.9417 23.9634 61.7139 23.9675 61.4941 23.9756C61.2744 23.9756 61.0547 23.9837 60.835 24C60.5745 24.0244 60.3141 24.0366 60.0537 24.0366C59.9886 24.0366 59.9194 24.0326 59.8462 24.0244C59.7811 24.0244 59.716 24.0122 59.6509 23.9878C59.5939 23.9634 59.5451 23.9268 59.5044 23.8779C59.4718 23.821 59.4556 23.7477 59.4556 23.6582C59.4556 23.4954 59.5573 23.3897 59.7607 23.3408C59.9642 23.2839 60.2083 23.2554 60.4932 23.2554L61.0059 23.2554C61.1768 23.2554 61.3354 23.2513 61.4819 23.2432C61.6366 23.235 61.7708 23.2106 61.8848 23.1699C61.9987 23.1292 62.0882 23.0723 62.1533 22.999C62.2266 22.9176 62.2632 22.8078 62.2632 22.6694L62.1045 9.70557C62.1045 9.66488 62.0964 9.60791 62.0801 9.53467C62.0638 9.46143 62.0353 9.42481 61.9946 9.42481C61.9377 9.42481 61.8929 9.43701 61.8603 9.46143C61.8359 9.4777 61.8156 9.49398 61.7993 9.51026L56.3306 23.7437C56.298 23.8739 56.2492 23.939 56.1841 23.939C56.119 23.939 56.062 23.8739 56.0132 23.7437L50.5688 9.38818C50.5444 9.29053 50.4956 9.2417 50.4224 9.2417C50.3898 9.2417 50.3613 9.24984 50.3369 9.26611C50.3206 9.28239 50.3125 9.32308 50.3125 9.38818L49.9951 21.0459C49.9951 21.1436 49.9992 21.2738 50.0073 21.4365C50.0236 21.5911 50.0439 21.7539 50.0684 21.9248C50.1009 22.0957 50.1375 22.2625 50.1782 22.4253C50.227 22.5881 50.2881 22.7264 50.3613 22.8403C50.4671 23.0112 50.6258 23.1374 50.8374 23.2188C51.0571 23.292 51.2891 23.3449 51.5332 23.3774C51.7855 23.4019 52.0337 23.4181 52.2778 23.4263C52.5301 23.4344 52.7417 23.4507 52.9126 23.4751C53.0102 23.4832 53.0754 23.5199 53.1079 23.585C53.1486 23.6501 53.1689 23.7192 53.1689 23.7925C53.1689 23.8413 53.1405 23.882 53.0835 23.9146C53.0347 23.9471 52.9696 23.9756 52.8882 24C52.8149 24.0163 52.7295 24.0244 52.6318 24.0244C52.5342 24.0326 52.4447 24.0366 52.3633 24.0366C52.0622 24.0366 51.7814 24.0285 51.521 24.0122C51.2606 23.9959 51.0083 23.9797 50.7642 23.9634C50.52 23.9471 50.2799 23.9308 50.0439 23.9146C49.8079 23.8983 49.5597 23.8901 49.2993 23.8901ZM73.5547 17.8965L75.6421 17.811C75.9676 17.7866 76.2158 17.7093 76.3867 17.5791C76.5576 17.4408 76.6838 17.278 76.7651 17.0908C76.8547 16.8955 76.9198 16.6839 76.9604 16.4561C77.0093 16.2282 77.0784 16.0044 77.168 15.7847C77.1924 15.687 77.2331 15.6382 77.29 15.6382C77.404 15.6382 77.4609 15.6667 77.4609 15.7236L77.4609 16.2119C77.4609 16.5374 77.4447 16.8914 77.4121 17.2739C77.3877 17.6483 77.3755 17.9697 77.3755 18.2383C77.3755 18.4987 77.3958 18.7754 77.4365 19.0684C77.4853 19.3613 77.5098 19.6624 77.5098 19.9717C77.5098 20.0124 77.5057 20.0775 77.4976 20.167C77.4894 20.2565 77.4772 20.3501 77.4609 20.4478C77.4447 20.5454 77.4202 20.6309 77.3877 20.7041C77.3633 20.7773 77.3267 20.814 77.2778 20.814C77.1883 20.814 77.1313 20.7733 77.1069 20.6919C77.0907 20.6024 77.0744 20.521 77.0581 20.4478C77.0418 20.3501 77.0133 20.2321 76.9727 20.0938C76.932 19.9554 76.8872 19.8171 76.8384 19.6787C76.7895 19.5322 76.7448 19.402 76.7041 19.2881C76.6634 19.1742 76.6349 19.0968 76.6186 19.0562C76.5454 18.9097 76.403 18.7957 76.1914 18.7144C75.9798 18.6248 75.7397 18.5597 75.4712 18.519C75.2108 18.4702 74.9381 18.4417 74.6533 18.4336C74.3766 18.4173 74.1325 18.4092 73.9209 18.4092L73.5547 18.4092C73.4245 18.4092 73.3431 18.4377 73.3105 18.4946C73.278 18.5435 73.2617 18.6248 73.2617 18.7388L73.2617 23.0234C73.2617 23.2676 73.339 23.4222 73.4936 23.4873L77.2046 23.4873C77.3673 23.4873 77.5342 23.4873 77.7051 23.4873C77.8841 23.4792 78.0021 23.4588 78.0591 23.4263C78.1811 23.3937 78.2829 23.3245 78.3643 23.2188C78.4538 23.1048 78.527 22.999 78.584 22.9014C78.6084 22.8607 78.6532 22.7752 78.7183 22.645C78.7915 22.5148 78.8647 22.3765 78.938 22.23C79.0194 22.0754 79.0926 21.9329 79.1577 21.8027C79.231 21.6725 79.2839 21.5871 79.3164 21.5464C79.3652 21.4487 79.4466 21.3999 79.5605 21.3999C79.6338 21.3999 79.6867 21.4284 79.7192 21.4854L79.7192 23.3042C79.7192 23.3774 79.7111 23.4466 79.6948 23.5117C79.6867 23.5687 79.6745 23.6419 79.6582 23.7315C79.6256 23.8454 79.585 23.9227 79.5361 23.9634C79.4873 23.9959 79.3937 24.0285 79.2554 24.061C78.4334 24.061 77.6522 24.057 76.9116 24.0488C76.1792 24.0407 75.4346 24.0326 74.6777 24.0244C73.9209 24.0244 73.1234 24.0203 72.2852 24.0122C71.4469 24.0041 70.5111 24 69.4775 24C69.3392 24 69.27 23.9308 69.27 23.7925C69.27 23.703 69.3148 23.6338 69.4043 23.585C69.4938 23.5361 69.5752 23.5036 69.6484 23.4873C69.6973 23.4873 69.7746 23.4832 69.8804 23.4751C69.9943 23.467 70.1164 23.4629 70.2466 23.4629C70.3768 23.4548 70.5029 23.4466 70.625 23.4385C70.7471 23.4303 70.8529 23.4263 70.9424 23.4263C71.1377 23.4263 71.2353 23.2717 71.2353 22.9624L71.2353 13.9536C71.2353 13.8153 71.2191 13.6444 71.1865 13.4409C71.1621 13.2375 71.1092 13.0666 71.0278 12.9282C70.9709 12.8875 70.9424 12.8672 70.9424 12.8672L69.2334 12.6963C69.0788 12.6963 69.0015 12.619 69.0015 12.4644C69.0015 12.4237 69.0096 12.3748 69.0259 12.3179C69.0422 12.2528 69.095 12.2202 69.1846 12.2202L71.1865 12.2202C71.9678 12.2202 72.7368 12.2162 73.4937 12.208C74.2505 12.1999 74.9463 12.1958 75.5811 12.1958L77.3145 12.1958C77.4447 12.1958 77.5789 12.1999 77.7173 12.208C77.8638 12.208 78.0021 12.2121 78.1323 12.2202C78.2625 12.2202 78.3805 12.2243 78.4863 12.2324C78.5921 12.2324 78.6735 12.2324 78.7305 12.2324C78.7874 12.2406 78.8322 12.269 78.8647 12.3179C78.8973 12.3667 78.9176 12.4277 78.9258 12.501C78.9421 12.5661 78.9502 12.6353 78.9502 12.7085C78.9583 12.7736 78.9624 12.8265 78.9624 12.8672L78.9624 14.8569C78.9624 14.9302 78.9339 14.9668 78.877 14.9668C78.7874 14.9668 78.7183 14.9098 78.6694 14.7959C78.6287 14.6738 78.5636 14.5314 78.4741 14.3687C78.4009 14.1896 78.3114 14.0106 78.2056 13.8315C78.0998 13.6525 78.0225 13.5142 77.9736 13.4165C77.9004 13.2782 77.7865 13.1724 77.6318 13.0991C77.4853 13.0177 77.3185 12.9567 77.1313 12.916C76.9442 12.8672 76.7529 12.8306 76.5576 12.8062C76.3623 12.7817 76.1914 12.7533 76.0449 12.7207C75.9961 12.7207 75.87 12.7166 75.6665 12.7085C75.4631 12.7004 75.2311 12.6963 74.9707 12.6963C74.7184 12.6882 74.4661 12.68 74.2139 12.6719C73.9697 12.6637 73.7785 12.6597 73.6401 12.6597C73.4692 12.6597 73.3634 12.7085 73.3228 12.8062C73.2821 12.9038 73.2617 13.0503 73.2617 13.2456L73.2617 17.6035C73.2617 17.6768 73.2861 17.7459 73.335 17.811C73.3919 17.868 73.4652 17.8965 73.5547 17.8965ZM81.2085 23.7925C81.2085 23.7355 81.237 23.6867 81.2939 23.646C81.359 23.6053 81.4323 23.5728 81.5137 23.5483C81.595 23.5239 81.6683 23.5077 81.7334 23.4995C81.8066 23.4832 81.8555 23.4751 81.8799 23.4751L82.1606 23.4751C82.2583 23.4751 82.36 23.471 82.4658 23.4629C82.5797 23.4548 82.6896 23.4466 82.7954 23.4385C82.9012 23.4222 82.9907 23.4059 83.064 23.3897C83.1453 23.3734 83.2023 23.353 83.2349 23.3286C83.3325 23.231 83.3813 22.9828 83.3813 22.584L83.3813 13.2456C83.3813 12.9771 83.3122 12.8306 83.1738 12.8062C82.9134 12.7817 82.6082 12.7695 82.2583 12.7695C82.0793 12.7695 81.9124 12.7614 81.7578 12.7451C81.6113 12.7207 81.4689 12.6922 81.3306 12.6597C81.2492 12.6353 81.2085 12.5864 81.2085 12.5132C81.2655 12.383 81.3509 12.3016 81.4648 12.269C81.5869 12.2365 81.7131 12.2202 81.8433 12.2202C82.1281 12.2202 82.4292 12.2365 82.7466 12.269C83.064 12.2935 83.3325 12.3057 83.5522 12.3057C84.0894 12.3057 84.6427 12.2935 85.2124 12.269C85.7902 12.2365 86.4412 12.2202 87.1655 12.2202C87.5155 12.2202 87.8532 12.2243 88.1787 12.2324C88.5124 12.2406 88.842 12.265 89.1675 12.3057C89.2651 12.3219 89.3994 12.3586 89.5703 12.4155C89.7493 12.4644 89.9325 12.5213 90.1196 12.5864C90.3149 12.6515 90.494 12.7207 90.6567 12.794C90.8276 12.8591 90.9497 12.912 91.0229 12.9526C92.0402 13.506 92.8092 14.2181 93.3301 15.0889C93.8509 15.9515 94.1113 17.0217 94.1113 18.2993C94.0869 18.6411 94.0544 18.9707 94.0137 19.2881C93.973 19.6055 93.8957 19.9229 93.7817 20.2402C93.6759 20.5495 93.5132 20.8628 93.2935 21.1802C93.0737 21.4976 92.7686 21.8312 92.3779 22.1812C92.1582 22.3602 91.9263 22.527 91.6821 22.6816C91.438 22.8363 91.1979 22.9746 90.9619 23.0967C90.734 23.2188 90.5184 23.3246 90.3149 23.4141C90.1196 23.4955 89.9487 23.5565 89.8022 23.5972C89.4035 23.6948 89.021 23.7721 88.6548 23.8291C88.2886 23.8861 87.9264 23.9268 87.5684 23.9512C87.2103 23.9756 86.8441 23.9919 86.4697 24C86.1035 24 85.717 24 85.3101 24L83.2104 24L81.3794 24C81.2655 23.9756 81.2085 23.9064 81.2085 23.7925ZM85.3223 22.8159C85.3223 22.9543 85.3263 23.0804 85.3345 23.1943C85.3507 23.3001 85.3955 23.3734 85.4687 23.4141C85.5339 23.4303 85.6193 23.4466 85.7251 23.4629C85.839 23.471 85.9611 23.4792 86.0913 23.4873C86.2297 23.4873 86.3639 23.4873 86.4941 23.4873C86.6325 23.4873 86.7586 23.4873 86.8726 23.4873C87.2632 23.4873 87.609 23.4588 87.9102 23.4019C88.2194 23.3368 88.4961 23.2513 88.7402 23.1455C88.9925 23.0397 89.2163 22.9177 89.4116 22.7793C89.6151 22.6328 89.8104 22.4823 89.9976 22.3276C90.2905 22.0591 90.5469 21.7743 90.7666 21.4732C90.9945 21.172 91.1816 20.8465 91.3281 20.4966C91.4827 20.1385 91.5967 19.752 91.6699 19.3369C91.7513 18.9137 91.792 18.4458 91.792 17.9331C91.792 17.5506 91.7676 17.1966 91.7187 16.8711C91.6699 16.5374 91.5885 16.2241 91.4746 15.9312C91.3688 15.6382 91.2264 15.3574 91.0474 15.0889C90.8683 14.8203 90.6527 14.5518 90.4004 14.2832C90.1156 13.9902 89.8104 13.738 89.4849 13.5264C89.1675 13.3066 88.8338 13.1317 88.4839 13.0015C88.1339 12.8631 87.7799 12.7614 87.4219 12.6963C87.0719 12.6312 86.7261 12.5986 86.3843 12.5986C86.1727 12.5986 85.9774 12.6271 85.7983 12.6841C85.6193 12.7329 85.4606 12.8591 85.3223 13.0625L85.3223 22.8159ZM99.6655 12.9771L99.6655 22.5474C99.6655 22.5881 99.6696 22.6491 99.6777 22.7305C99.6859 22.8119 99.6981 22.8973 99.7144 22.9868C99.7388 23.0682 99.7713 23.1414 99.812 23.2066C99.8527 23.2717 99.9097 23.3042 99.9829 23.3042L101.326 23.3042C101.415 23.3042 101.488 23.3408 101.545 23.4141C101.611 23.4873 101.643 23.5687 101.643 23.6582C101.643 23.7315 101.606 23.8088 101.533 23.8901C101.46 23.9634 101.387 24 101.313 24L97.4805 24C97.3177 24 97.1549 24.0041 96.9922 24.0122C96.8294 24.0285 96.6504 24.0366 96.4551 24.0366C96.3411 24.0366 96.2313 24.0326 96.1255 24.0244C96.0197 24.0163 95.922 24 95.8325 23.9756C95.7837 23.943 95.7593 23.8657 95.7593 23.7437C95.7593 23.5728 95.8 23.4751 95.8813 23.4507C96.0848 23.4181 96.2598 23.3937 96.4062 23.3775C96.5527 23.353 96.7074 23.3408 96.8701 23.3408C97.0003 23.3408 97.0898 23.3408 97.1387 23.3408C97.1956 23.3327 97.2607 23.3205 97.334 23.3042C97.4479 23.2554 97.5049 23.0845 97.5049 22.7915L97.5049 13.0625C97.5049 12.9649 97.4561 12.8794 97.3584 12.8062C97.2689 12.7248 97.1794 12.6841 97.0898 12.6841C96.9027 12.6841 96.7562 12.7004 96.6504 12.7329C96.5527 12.7573 96.4225 12.7695 96.2598 12.7695C96.154 12.7695 96.0482 12.7614 95.9424 12.7451C95.8366 12.7207 95.7308 12.6922 95.625 12.6597C95.568 12.6353 95.5395 12.5864 95.5395 12.5132C95.5151 12.4074 95.5233 12.3219 95.564 12.2568C95.6128 12.1917 95.6779 12.1429 95.7593 12.1104C95.8407 12.0697 95.9302 12.0453 96.0278 12.0371C96.1336 12.029 96.2313 12.0249 96.3208 12.0249L100.715 12.0249C100.927 12.0249 101.061 12.0249 101.118 12.0249C101.175 12.0249 101.212 12.0331 101.228 12.0493C101.383 12.0737 101.46 12.1633 101.46 12.3179C101.46 12.4888 101.366 12.5986 101.179 12.6475C100.992 12.6963 100.785 12.7248 100.557 12.7329C100.337 12.7411 100.133 12.7573 99.9463 12.7817C99.7591 12.798 99.6655 12.8631 99.6655 12.9771ZM112.141 12.5498L112.141 15.2354C112.141 15.333 112.113 15.4225 112.056 15.5039C112.007 15.5772 111.938 15.6138 111.848 15.6138C111.726 15.6138 111.616 15.5568 111.519 15.4429C111.429 15.329 111.348 15.1987 111.274 15.0523C111.201 14.8976 111.132 14.743 111.067 14.5884C111.01 14.4338 110.953 14.3117 110.896 14.2222C110.806 14.1001 110.721 13.9943 110.64 13.9048C110.566 13.8071 110.485 13.7217 110.396 13.6484C110.306 13.5671 110.208 13.4938 110.103 13.4287C109.997 13.3636 109.879 13.2985 109.749 13.2334C109.553 13.1358 109.329 13.0584 109.077 13.0015C108.833 12.9445 108.544 12.916 108.21 12.916C107.885 12.916 107.555 12.9974 107.222 13.1602C106.888 13.3148 106.619 13.5345 106.416 13.8193C106.261 14.0309 106.119 14.2751 105.989 14.5518C105.867 14.8285 105.757 15.1296 105.659 15.4551C105.57 15.7725 105.5 16.1061 105.452 16.4561C105.403 16.7979 105.378 17.1356 105.378 17.4692C105.378 17.5669 105.387 17.7419 105.403 17.9942C105.419 18.2383 105.448 18.515 105.488 18.8242C105.537 19.1335 105.602 19.4509 105.684 19.7764C105.773 20.1019 105.891 20.3908 106.038 20.6431C106.347 21.2534 106.758 21.7539 107.271 22.1445C107.791 22.5352 108.394 22.7386 109.077 22.7549C109.281 22.7549 109.476 22.7305 109.663 22.6817C109.858 22.6328 110.037 22.5718 110.2 22.4985C110.233 22.4823 110.286 22.4497 110.359 22.4009C110.432 22.3521 110.509 22.2992 110.591 22.2422C110.672 22.1771 110.75 22.112 110.823 22.0469C110.904 21.9818 110.965 21.9289 111.006 21.8882C111.112 21.7661 111.209 21.6318 111.299 21.4854C111.388 21.3389 111.462 21.1965 111.519 21.0581C111.584 20.9116 111.637 20.7814 111.677 20.6675C111.718 20.5454 111.746 20.4518 111.763 20.3867C111.787 20.2891 111.864 20.2402 111.995 20.2402C112.035 20.2402 112.068 20.2606 112.092 20.3013C112.117 20.342 112.133 20.3908 112.141 20.4478C112.157 20.4966 112.166 20.5454 112.166 20.5942C112.174 20.6431 112.178 20.6797 112.178 20.7041C112.178 21.2005 112.068 21.6481 111.848 22.0469C111.637 22.4456 111.348 22.7874 110.981 23.0723C110.632 23.3571 110.253 23.585 109.846 23.7559C109.439 23.9186 109.008 24 108.552 24C107.991 24 107.474 23.9349 107.002 23.8047C106.538 23.6664 106.115 23.4832 105.732 23.2554C105.358 23.0194 105.024 22.7427 104.731 22.4253C104.447 22.0998 104.198 21.7498 103.987 21.3755C103.726 20.9198 103.519 20.3989 103.364 19.813C103.218 19.2271 103.145 18.6574 103.145 18.104C103.145 17.217 103.344 16.391 103.743 15.626C104.141 14.8529 104.723 14.1245 105.488 13.4409C105.944 13.0584 106.404 12.7614 106.868 12.5498C107.34 12.3382 107.873 12.2324 108.467 12.2324C108.703 12.2324 108.923 12.2446 109.126 12.2691C109.338 12.2853 109.549 12.322 109.761 12.3789C109.98 12.4277 110.208 12.4969 110.444 12.5864C110.68 12.676 110.945 12.7858 111.238 12.916C111.246 12.9242 111.27 12.9282 111.311 12.9282C111.409 12.9282 111.482 12.8998 111.531 12.8428C111.58 12.7858 111.62 12.7207 111.653 12.6475C111.694 12.5742 111.734 12.5091 111.775 12.4522C111.816 12.3952 111.881 12.3667 111.97 12.3667C112.003 12.3667 112.039 12.3871 112.08 12.4277C112.121 12.4684 112.141 12.5091 112.141 12.5498ZM113.093 23.6582C113.093 23.6257 113.118 23.5768 113.166 23.5117C113.207 23.4466 113.272 23.4141 113.362 23.4141C113.492 23.4141 113.63 23.3937 113.777 23.353C113.931 23.3123 114.078 23.2513 114.216 23.1699C114.363 23.0804 114.497 22.9706 114.619 22.8403C114.749 22.702 114.859 22.5392 114.949 22.3521L118.184 14.686C118.192 14.6698 118.208 14.6332 118.232 14.5762C118.265 14.5111 118.281 14.4582 118.281 14.4175C118.281 14.328 118.261 14.2385 118.22 14.1489C118.18 14.0594 118.131 13.978 118.074 13.9048C118.025 13.8234 117.98 13.7542 117.939 13.6973C117.899 13.6322 117.878 13.5752 117.878 13.5264C117.878 13.445 117.907 13.3799 117.964 13.3311C118.021 13.2822 118.086 13.2456 118.159 13.2212C118.241 13.1887 118.326 13.1683 118.416 13.1602C118.505 13.152 118.582 13.1398 118.647 13.1235C118.721 13.091 118.802 13.0381 118.892 12.9649C118.981 12.8835 119.054 12.8184 119.111 12.7695C119.136 12.7289 119.156 12.676 119.172 12.6109C119.189 12.5457 119.205 12.4847 119.221 12.4277C119.246 12.3708 119.274 12.322 119.307 12.2813C119.347 12.2406 119.4 12.2202 119.465 12.2202C119.628 12.2202 119.726 12.2894 119.758 12.4277L123.25 22.877C123.298 23.0316 123.351 23.1537 123.408 23.2432C123.473 23.3246 123.551 23.3856 123.64 23.4263C123.73 23.467 123.827 23.4914 123.933 23.4995C124.047 23.5077 124.177 23.5117 124.324 23.5117L124.763 23.5117C124.836 23.5117 124.893 23.5199 124.934 23.5361C124.975 23.5361 125.02 23.5646 125.068 23.6216C125.125 23.6786 125.154 23.7274 125.154 23.7681C125.154 23.8983 125.081 23.9675 124.934 23.9756C124.918 23.9919 124.861 24 124.763 24L124.067 24C123.831 24 123.559 23.9878 123.25 23.9634C122.94 23.9308 122.631 23.9146 122.322 23.9146C121.817 23.9146 121.329 23.9308 120.857 23.9634C120.385 23.9878 119.966 24 119.6 24C119.559 24 119.514 23.9919 119.465 23.9756C119.425 23.9593 119.404 23.9268 119.404 23.8779C119.404 23.8291 119.425 23.7803 119.465 23.7315C119.506 23.6826 119.555 23.6379 119.612 23.5972C119.669 23.5484 119.73 23.5117 119.795 23.4873C119.868 23.4629 119.933 23.4507 119.99 23.4507C120.072 23.4507 120.153 23.4548 120.234 23.4629C120.316 23.471 120.405 23.4751 120.503 23.4751C120.763 23.4751 120.975 23.4466 121.138 23.3897C121.276 23.3408 121.345 23.2432 121.345 23.0967C121.345 23.0804 121.341 23.0601 121.333 23.0357C121.325 23.0112 121.317 22.9746 121.309 22.9258C121.276 22.8526 121.223 22.7183 121.15 22.523C121.077 22.3195 120.999 22.0998 120.918 21.8638C120.837 21.6278 120.755 21.3999 120.674 21.1802C120.601 20.9605 120.544 20.7896 120.503 20.6675C120.47 20.5943 120.434 20.5251 120.393 20.46C120.361 20.3867 120.299 20.3501 120.21 20.3501L116.78 20.3501C116.576 20.3501 116.446 20.4478 116.389 20.6431L115.901 22.4131C115.885 22.4701 115.872 22.5189 115.864 22.5596C115.856 22.6003 115.852 22.6572 115.852 22.7305C115.852 22.8607 115.86 22.9665 115.876 23.0479C115.901 23.1211 115.933 23.1821 115.974 23.231C116.023 23.2798 116.084 23.3164 116.157 23.3408C116.239 23.3571 116.34 23.3734 116.462 23.3897C116.503 23.3897 116.568 23.3978 116.658 23.4141C116.755 23.4222 116.857 23.4344 116.963 23.4507C117.069 23.467 117.166 23.4832 117.256 23.4995C117.354 23.5077 117.423 23.5117 117.463 23.5117C117.504 23.528 117.561 23.5687 117.634 23.6338C117.716 23.6908 117.756 23.7559 117.756 23.8291C117.756 23.8698 117.74 23.9105 117.708 23.9512C117.675 23.9837 117.614 24 117.524 24L117.146 24C117.016 24 116.837 23.9959 116.609 23.9878C116.389 23.9797 116.165 23.9756 115.937 23.9756C115.718 23.9756 115.453 23.9797 115.144 23.9878C114.835 23.9959 114.517 24 114.192 24C114.151 24 114.07 23.9959 113.948 23.9878C113.826 23.9715 113.7 23.9512 113.569 23.9268C113.447 23.8942 113.337 23.8576 113.24 23.8169C113.142 23.7681 113.093 23.7152 113.093 23.6582ZM116.865 19.2637C116.857 19.28 116.853 19.3247 116.853 19.398L116.853 19.459C116.853 19.5485 116.877 19.6258 116.926 19.6909C116.983 19.7479 117.056 19.7764 117.146 19.7764C117.642 19.7764 118.11 19.7967 118.55 19.8374C118.997 19.87 119.429 19.8862 119.844 19.8862C119.933 19.8862 120.002 19.8618 120.051 19.813C120.1 19.756 120.125 19.7031 120.125 19.6543L120.125 19.52C120.125 19.5038 120.12 19.4875 120.112 19.4712C120.096 19.4468 120.084 19.4061 120.076 19.3491L118.77 15.6382C118.704 15.4673 118.627 15.3818 118.538 15.3818C118.497 15.3818 118.452 15.3981 118.403 15.4307C118.354 15.4632 118.322 15.4958 118.306 15.5283L116.865 19.2637ZM125.911 23.7681C125.911 23.5809 125.992 23.4751 126.155 23.4507L126.619 23.4507C126.765 23.4507 126.899 23.4507 127.021 23.4507C127.144 23.4426 127.249 23.4263 127.339 23.4019C127.428 23.3775 127.498 23.3368 127.546 23.2798C127.603 23.2228 127.632 23.1455 127.632 23.0479L127.632 13.209C127.632 13.1195 127.595 13.0462 127.522 12.9893C127.449 12.9242 127.367 12.8916 127.278 12.8916L126.411 12.8916L126.179 12.8916C126.139 12.8916 126.09 12.8875 126.033 12.8794C125.976 12.8713 125.911 12.8631 125.837 12.855C125.797 12.8387 125.76 12.8062 125.728 12.7573C125.703 12.7085 125.691 12.6638 125.691 12.6231C125.691 12.4684 125.789 12.3911 125.984 12.3911L128.987 12.3911C129.011 12.3911 129.072 12.3871 129.17 12.3789C129.276 12.3708 129.386 12.3626 129.5 12.3545C129.613 12.3464 129.715 12.3382 129.805 12.3301C129.894 12.322 129.947 12.3179 129.963 12.3179C130.077 12.3097 130.203 12.3016 130.342 12.2935C130.488 12.2853 130.606 12.2813 130.696 12.2813C130.72 12.2813 130.765 12.2853 130.83 12.2935C130.895 12.2935 130.964 12.2975 131.038 12.3057C131.111 12.3057 131.18 12.3097 131.245 12.3179C131.318 12.3179 131.367 12.3179 131.392 12.3179C131.506 12.3423 131.562 12.4074 131.562 12.5132C131.562 12.6027 131.534 12.6922 131.477 12.7818C131.428 12.8387 131.351 12.8672 131.245 12.8672L129.902 12.8672C129.845 12.8672 129.801 12.8998 129.768 12.9649C129.736 13.0218 129.707 13.0951 129.683 13.1846C129.666 13.266 129.654 13.3514 129.646 13.4409C129.646 13.5305 129.646 13.6078 129.646 13.6729C129.646 14.096 129.666 14.5192 129.707 14.9424C129.748 15.3574 129.768 15.8335 129.768 16.3706L129.768 23.1089C129.768 23.1659 129.78 23.235 129.805 23.3164C129.837 23.3897 129.89 23.4263 129.963 23.4263L133.87 23.4263C134.089 23.4263 134.297 23.3286 134.492 23.1333C134.687 22.938 134.867 22.7101 135.029 22.4497C135.2 22.1893 135.347 21.933 135.469 21.6807C135.599 21.4203 135.705 21.229 135.786 21.1069C135.835 21.05 135.884 21.0215 135.933 21.0215C135.973 21.0215 136.01 21.0581 136.042 21.1314C136.075 21.2453 136.091 21.347 136.091 21.4365C136.099 21.5179 136.104 21.64 136.104 21.8028C136.104 21.8679 136.091 21.9655 136.067 22.0957C136.051 22.2178 136.026 22.348 135.994 22.4863C135.969 22.6247 135.945 22.759 135.92 22.8892C135.904 23.0112 135.896 23.1089 135.896 23.1821C135.896 23.2228 135.896 23.2798 135.896 23.353C135.896 23.4181 135.892 23.4873 135.884 23.5606C135.884 23.6338 135.88 23.703 135.872 23.7681C135.863 23.825 135.851 23.8657 135.835 23.8902C135.721 23.9634 135.619 24 135.53 24C134.513 24 133.426 23.9919 132.271 23.9756C131.115 23.9512 129.963 23.939 128.816 23.939C128.612 23.939 128.401 23.943 128.181 23.9512C127.961 23.9593 127.75 23.9715 127.546 23.9878C127.343 23.9959 127.148 24.0041 126.96 24.0122C126.781 24.0204 126.627 24.0244 126.497 24.0244C126.326 24.0244 126.183 24.0163 126.069 24C125.964 23.9756 125.911 23.8983 125.911 23.7681ZM145.283 22.9868L145.283 14.4297C145.283 14.1774 145.291 13.8316 145.308 13.3921C145.324 12.9445 145.344 12.4644 145.369 11.9517C145.393 11.439 145.413 10.9181 145.43 10.3892C145.446 9.86021 145.454 9.38413 145.454 8.96095C145.454 8.39129 145.43 7.97625 145.381 7.71584C145.365 7.56122 145.299 7.43915 145.186 7.34963C145.08 7.25197 144.945 7.17873 144.783 7.1299C144.628 7.07293 144.449 7.03631 144.246 7.02004C144.05 6.99562 143.859 6.97528 143.672 6.959C143.493 6.93459 143.322 6.91424 143.159 6.89797C143.005 6.87355 142.882 6.83693 142.793 6.7881C142.687 6.73114 142.634 6.66196 142.634 6.58058C142.634 6.51548 142.638 6.47072 142.646 6.44631C142.663 6.42189 142.687 6.40155 142.72 6.38527C142.817 6.35272 142.911 6.33237 143 6.32424C143.098 6.30796 143.184 6.29982 143.257 6.29982L143.721 6.29982C144.087 6.29982 144.4 6.30796 144.661 6.32424C144.929 6.33237 145.177 6.34865 145.405 6.37306C145.633 6.38934 145.857 6.40562 146.077 6.42189C146.296 6.43003 146.545 6.4341 146.821 6.4341C147.122 6.4341 147.399 6.41782 147.651 6.38527C147.912 6.35272 148.156 6.3161 148.384 6.27541C148.62 6.23472 148.844 6.1981 149.055 6.16555C149.275 6.13299 149.495 6.11672 149.714 6.11672L150.154 6.11672C150.243 6.11672 150.341 6.12486 150.447 6.14113C150.553 6.15741 150.605 6.21844 150.605 6.32424C150.605 6.46258 150.512 6.56024 150.325 6.61721C150.186 6.6579 150.024 6.69452 149.836 6.72707C149.657 6.75148 149.454 6.80845 149.226 6.89797C149.014 6.9468 148.84 6.99969 148.701 7.05666C148.571 7.11362 148.473 7.15838 148.408 7.19094C148.319 7.2479 148.237 7.32114 148.164 7.41066C148.099 7.50018 148.066 7.63039 148.066 7.80129L148.066 22.523C148.066 22.702 148.115 22.8403 148.213 22.938C148.311 23.0357 148.433 23.1089 148.579 23.1577C148.734 23.2066 148.896 23.235 149.067 23.2432C149.246 23.2513 149.413 23.2554 149.568 23.2554C149.747 23.2554 149.999 23.2473 150.325 23.231C150.65 23.2147 150.992 23.1903 151.35 23.1577C151.708 23.1252 152.054 23.0845 152.388 23.0357C152.729 22.9787 153.006 22.9136 153.218 22.8404C153.503 22.7427 153.763 22.645 153.999 22.5474C154.243 22.4416 154.447 22.3114 154.609 22.1568C154.634 22.1405 154.674 22.1079 154.731 22.0591C154.788 22.0021 154.849 21.937 154.915 21.8638C154.988 21.7824 155.057 21.697 155.122 21.6074C155.187 21.5179 155.244 21.4284 155.293 21.3389C155.342 21.2738 155.382 21.2168 155.415 21.168C155.456 21.1192 155.492 21.0785 155.525 21.0459C155.557 21.0052 155.598 20.9361 155.647 20.8384C155.696 20.7407 155.749 20.6309 155.806 20.5088C155.871 20.3867 155.936 20.2647 156.001 20.1426C156.066 20.0124 156.131 19.8903 156.196 19.7764C156.253 19.7031 156.306 19.6421 156.355 19.5933C156.412 19.5445 156.485 19.52 156.575 19.52C156.664 19.52 156.713 19.5729 156.721 19.6787C156.737 19.7764 156.746 19.874 156.746 19.9717C156.746 20.167 156.721 20.3664 156.672 20.5698C156.632 20.7652 156.583 20.9605 156.526 21.1558C156.469 21.3511 156.408 21.5464 156.343 21.7417C156.278 21.937 156.229 22.1323 156.196 22.3277C156.156 22.5148 156.127 22.7101 156.111 22.9136C156.103 23.1089 156.082 23.292 156.05 23.4629C156.025 23.6257 155.972 23.7599 155.891 23.8657C155.818 23.9715 155.696 24.0244 155.525 24.0244L147.175 24.0244C146.671 24.0244 146.248 24.0326 145.906 24.0488C145.572 24.0733 145.267 24.0977 144.99 24.1221C144.714 24.1546 144.437 24.1791 144.16 24.1953C143.892 24.2197 143.574 24.232 143.208 24.232C143.07 24.232 142.952 24.2197 142.854 24.1953C142.764 24.1709 142.691 24.1058 142.634 24C142.626 23.9675 142.618 23.9431 142.61 23.9268C142.602 23.9105 142.598 23.8576 142.598 23.7681C142.598 23.6623 142.642 23.589 142.732 23.5484C142.83 23.4995 142.903 23.467 142.952 23.4507C143.041 23.4344 143.175 23.4263 143.354 23.4263C143.534 23.4181 143.696 23.4059 143.843 23.3897C143.916 23.3815 144.01 23.3693 144.124 23.353C144.237 23.3368 144.36 23.3124 144.49 23.2798C144.628 23.2473 144.766 23.2066 144.905 23.1577C145.043 23.1089 145.169 23.0519 145.283 22.9868ZM158.015 18.2505C158.015 17.7704 158.06 17.335 158.149 16.9444C158.239 16.5456 158.373 16.1753 158.552 15.8335C158.731 15.4917 158.951 15.1703 159.211 14.8692C159.48 14.5599 159.785 14.2588 160.127 13.9658C160.396 13.738 160.684 13.5508 160.994 13.4043C161.303 13.2578 161.62 13.1439 161.946 13.0625C162.279 12.973 162.621 12.912 162.971 12.8794C163.321 12.8469 163.667 12.8306 164.009 12.8306C164.302 12.8306 164.611 12.8753 164.937 12.9649C165.27 13.0544 165.592 13.1724 165.901 13.3189C166.21 13.4572 166.495 13.6118 166.755 13.7827C167.016 13.9455 167.231 14.1042 167.402 14.2588C167.996 14.8203 168.456 15.4307 168.782 16.0899C169.107 16.7409 169.27 17.4571 169.27 18.2383C169.27 18.6615 169.237 19.0521 169.172 19.4102C169.115 19.7601 169.026 20.0897 168.904 20.3989C168.79 20.7082 168.643 21.0012 168.464 21.2779C168.293 21.5545 168.094 21.8272 167.866 22.0957C167.655 22.3317 167.402 22.5637 167.109 22.7915C166.825 23.0194 166.507 23.2228 166.157 23.4019C165.807 23.5809 165.429 23.7274 165.022 23.8413C164.623 23.9471 164.208 24 163.777 24C163.036 24 162.353 23.9024 161.726 23.7071C161.108 23.5036 160.53 23.1496 159.993 22.645C158.674 21.4976 158.015 20.0327 158.015 18.2505ZM163.667 13.3555C163.301 13.3555 162.987 13.3962 162.727 13.4776C162.475 13.5508 162.247 13.6607 162.043 13.8071C161.848 13.9455 161.669 14.1164 161.506 14.3198C161.344 14.5233 161.177 14.7512 161.006 15.0034C160.697 15.4836 160.493 15.9963 160.396 16.5415C160.298 17.0786 160.249 17.6239 160.249 18.1773C160.249 18.812 160.31 19.4468 160.432 20.0816C160.562 20.7082 160.811 21.3185 161.177 21.9126C161.274 22.0835 161.413 22.2626 161.592 22.4497C161.771 22.6288 161.966 22.7956 162.178 22.9502C162.389 23.0967 162.605 23.2228 162.825 23.3286C163.053 23.4263 163.264 23.4751 163.459 23.4751C163.842 23.4751 164.176 23.41 164.46 23.2798C164.753 23.1496 165.014 22.9787 165.242 22.7671C165.47 22.5474 165.669 22.2992 165.84 22.0225C166.019 21.7377 166.19 21.4447 166.353 21.1436C166.556 20.7448 166.702 20.3176 166.792 19.8618C166.89 19.398 166.938 18.8975 166.938 18.3604C166.938 17.9779 166.91 17.6198 166.853 17.2862C166.804 16.9525 166.723 16.631 166.609 16.3218C166.503 16.0126 166.369 15.7114 166.206 15.4185C166.043 15.1174 165.852 14.8122 165.632 14.503C165.413 14.1693 165.132 13.8967 164.79 13.6851C164.456 13.4654 164.082 13.3555 163.667 13.3555ZM175.544 23.8535L171.956 13.0015C171.923 12.9282 171.825 12.8753 171.663 12.8428C171.5 12.8021 171.337 12.7818 171.174 12.7818L170.771 12.7818C170.706 12.7818 170.637 12.7777 170.564 12.7696C170.491 12.7533 170.422 12.7329 170.356 12.7085C170.291 12.676 170.238 12.6393 170.198 12.5987C170.157 12.5498 170.137 12.4929 170.137 12.4278C170.137 12.2406 170.214 12.147 170.369 12.147L170.881 12.147C170.946 12.147 171.036 12.1511 171.15 12.1592C171.264 12.1673 171.382 12.1755 171.504 12.1836C171.634 12.1918 171.764 12.1999 171.895 12.208C172.025 12.2162 172.139 12.2202 172.236 12.2202C172.301 12.2202 172.424 12.2162 172.603 12.208C172.782 12.1999 172.985 12.1918 173.213 12.1836C173.449 12.1673 173.689 12.1511 173.933 12.1348C174.185 12.1185 174.417 12.1063 174.629 12.0982C174.849 12.0819 175.032 12.0697 175.178 12.0615C175.333 12.0534 175.426 12.0493 175.459 12.0493C175.703 12.0493 175.825 12.1633 175.825 12.3911C175.825 12.4562 175.76 12.5091 175.63 12.5498C175.508 12.5905 175.357 12.6271 175.178 12.6597C175.007 12.6922 174.832 12.7248 174.653 12.7573C174.474 12.7818 174.336 12.8062 174.238 12.8306C174.198 12.855 174.177 12.9038 174.177 12.9771C174.177 12.9933 174.181 13.0096 174.189 13.0259C174.189 13.0422 174.198 13.0829 174.214 13.148L176.753 20.814C176.777 20.8872 176.798 20.932 176.814 20.9483C176.822 20.9645 176.83 20.9686 176.838 20.9605C176.863 20.9605 176.891 20.9401 176.924 20.8994C176.956 20.8506 176.989 20.7936 177.021 20.7285C177.062 20.6634 177.095 20.5943 177.119 20.521C177.152 20.4396 177.176 20.3664 177.192 20.3013C177.502 19.4142 177.799 18.5353 178.083 17.6646C178.368 16.7857 178.678 15.919 179.011 15.0645C179.125 14.7552 179.235 14.4663 179.341 14.1978C179.447 13.9292 179.5 13.6281 179.5 13.2945C179.5 13.1805 179.491 13.0707 179.475 12.9649C179.459 12.8591 179.43 12.7858 179.39 12.7451C179.365 12.7207 179.316 12.7004 179.243 12.6841C179.17 12.6597 179.089 12.6434 178.999 12.6353C178.918 12.619 178.832 12.6068 178.743 12.5987C178.661 12.5905 178.596 12.5824 178.547 12.5742C178.507 12.5742 178.433 12.5742 178.328 12.5742C178.23 12.5661 178.128 12.5498 178.022 12.5254C177.917 12.501 177.823 12.4644 177.742 12.4156C177.668 12.3667 177.632 12.3016 177.632 12.2202C177.632 12.1144 177.656 12.0493 177.705 12.0249C177.713 12.0005 177.774 11.9883 177.888 11.9883L178.059 11.9883C178.173 11.9883 178.332 11.9964 178.535 12.0127C178.747 12.029 178.975 12.0453 179.219 12.0615C179.471 12.0778 179.727 12.0941 179.988 12.1104C180.256 12.1267 180.5 12.1348 180.72 12.1348L181.44 12.1348C181.644 12.1348 181.86 12.1267 182.087 12.1104C182.315 12.086 182.498 12.0738 182.637 12.0738C182.799 12.0738 182.917 12.0941 182.991 12.1348C183.072 12.1673 183.113 12.2528 183.113 12.3911C183.113 12.4888 183.031 12.5702 182.869 12.6353C182.714 12.6922 182.527 12.7451 182.307 12.794C182.096 12.8347 181.884 12.8753 181.672 12.916C181.461 12.9567 181.306 13.0056 181.208 13.0625C181.021 13.1846 180.842 13.3636 180.671 13.5996C180.5 13.8275 180.342 14.0716 180.195 14.3321C180.057 14.5843 179.935 14.8366 179.829 15.0889C179.723 15.3412 179.642 15.5528 179.585 15.7237C179.251 16.5375 178.889 17.4082 178.499 18.336C178.116 19.2637 177.738 20.1752 177.363 21.0703C177.339 21.1354 177.282 21.2738 177.192 21.4854C177.103 21.697 177.009 21.9248 176.912 22.169C176.814 22.4131 176.72 22.6491 176.631 22.877C176.549 23.0967 176.493 23.2595 176.46 23.3653C176.419 23.4873 176.375 23.6135 176.326 23.7437C176.285 23.8657 176.24 23.9756 176.191 24.0733C176.143 24.1791 176.094 24.2645 176.045 24.3296C176.004 24.3947 175.964 24.4273 175.923 24.4273C175.882 24.4273 175.841 24.4029 175.801 24.354C175.768 24.3052 175.736 24.2482 175.703 24.1831C175.671 24.118 175.642 24.0529 175.618 23.9878C175.593 23.9227 175.569 23.878 175.544 23.8535ZM187.812 17.8965L189.9 17.8111C190.225 17.7866 190.474 17.7093 190.645 17.5791C190.815 17.4408 190.942 17.278 191.023 17.0908C191.112 16.8955 191.178 16.6839 191.218 16.4561C191.267 16.2282 191.336 16.0044 191.426 15.7847C191.45 15.687 191.491 15.6382 191.548 15.6382C191.662 15.6382 191.719 15.6667 191.719 15.7237L191.719 16.2119C191.719 16.5375 191.702 16.8915 191.67 17.274C191.646 17.6483 191.633 17.9698 191.633 18.2383C191.633 18.4987 191.654 18.7754 191.694 19.0684C191.743 19.3614 191.768 19.6625 191.768 19.9717C191.768 20.0124 191.764 20.0775 191.755 20.167C191.747 20.2565 191.735 20.3501 191.719 20.4478C191.702 20.5454 191.678 20.6309 191.646 20.7041C191.621 20.7774 191.584 20.814 191.536 20.814C191.446 20.814 191.389 20.7733 191.365 20.6919C191.348 20.6024 191.332 20.521 191.316 20.4478C191.3 20.3501 191.271 20.2321 191.23 20.0938C191.19 19.9554 191.145 19.8171 191.096 19.6787C191.047 19.5323 191.003 19.402 190.962 19.2881C190.921 19.1742 190.893 19.0969 190.876 19.0562C190.803 18.9097 190.661 18.7958 190.449 18.7144C190.238 18.6249 189.998 18.5598 189.729 18.5191C189.469 18.4702 189.196 18.4418 188.911 18.4336C188.634 18.4173 188.39 18.4092 188.179 18.4092L187.812 18.4092C187.682 18.4092 187.601 18.4377 187.568 18.4947C187.536 18.5435 187.52 18.6249 187.52 18.7388L187.52 23.0235C187.52 23.2676 187.597 23.4222 187.751 23.4873L191.462 23.4873C191.625 23.4873 191.792 23.4873 191.963 23.4873C192.142 23.4792 192.26 23.4588 192.317 23.4263C192.439 23.3937 192.541 23.3246 192.622 23.2188C192.712 23.1048 192.785 22.999 192.842 22.9014C192.866 22.8607 192.911 22.7753 192.976 22.645C193.049 22.5148 193.123 22.3765 193.196 22.23C193.277 22.0754 193.35 21.933 193.416 21.8028C193.489 21.6726 193.542 21.5871 193.574 21.5464C193.623 21.4488 193.704 21.3999 193.818 21.3999C193.892 21.3999 193.944 21.4284 193.977 21.4854L193.977 23.3042C193.977 23.3775 193.969 23.4466 193.953 23.5117C193.944 23.5687 193.932 23.642 193.916 23.7315C193.883 23.8454 193.843 23.9227 193.794 23.9634C193.745 23.996 193.652 24.0285 193.513 24.0611C192.691 24.0611 191.91 24.057 191.169 24.0489C190.437 24.0407 189.692 24.0326 188.936 24.0244C188.179 24.0244 187.381 24.0204 186.543 24.0122C185.705 24.0041 184.769 24 183.735 24C183.597 24 183.528 23.9309 183.528 23.7925C183.528 23.703 183.573 23.6338 183.662 23.585C183.752 23.5362 183.833 23.5036 183.906 23.4873C183.955 23.4873 184.032 23.4833 184.138 23.4751C184.252 23.467 184.374 23.4629 184.504 23.4629C184.635 23.4548 184.761 23.4466 184.883 23.4385C185.005 23.4304 185.111 23.4263 185.2 23.4263C185.396 23.4263 185.493 23.2717 185.493 22.9624L185.493 13.9536C185.493 13.8153 185.477 13.6444 185.444 13.4409C185.42 13.2375 185.367 13.0666 185.286 12.9282C185.229 12.8876 185.2 12.8672 185.2 12.8672L183.491 12.6963C183.337 12.6963 183.259 12.619 183.259 12.4644C183.259 12.4237 183.267 12.3749 183.284 12.3179C183.3 12.2528 183.353 12.2202 183.442 12.2202L185.444 12.2202C186.226 12.2202 186.995 12.2162 187.751 12.208C188.508 12.1999 189.204 12.1958 189.839 12.1958L191.572 12.1958C191.702 12.1958 191.837 12.1999 191.975 12.208C192.122 12.208 192.26 12.2121 192.39 12.2202C192.52 12.2202 192.638 12.2243 192.744 12.2324C192.85 12.2324 192.931 12.2324 192.988 12.2324C193.045 12.2406 193.09 12.2691 193.123 12.3179C193.155 12.3667 193.175 12.4278 193.184 12.501C193.2 12.5661 193.208 12.6353 193.208 12.7085C193.216 12.7736 193.22 12.8265 193.22 12.8672L193.22 14.857C193.22 14.9302 193.192 14.9668 193.135 14.9668C193.045 14.9668 192.976 14.9099 192.927 14.7959C192.887 14.6739 192.821 14.5314 192.732 14.3687C192.659 14.1896 192.569 14.0106 192.463 13.8316C192.358 13.6525 192.28 13.5142 192.231 13.4165C192.158 13.2782 192.044 13.1724 191.89 13.0991C191.743 13.0178 191.576 12.9567 191.389 12.916C191.202 12.8672 191.011 12.8306 190.815 12.8062C190.62 12.7818 190.449 12.7533 190.303 12.7207C190.254 12.7207 190.128 12.7167 189.924 12.7085C189.721 12.7004 189.489 12.6963 189.229 12.6963C188.976 12.6882 188.724 12.68 188.472 12.6719C188.228 12.6638 188.036 12.6597 187.898 12.6597C187.727 12.6597 187.621 12.7085 187.581 12.8062C187.54 12.9038 187.52 13.0503 187.52 13.2456L187.52 17.6035C187.52 17.6768 187.544 17.746 187.593 17.8111C187.65 17.868 187.723 17.8965 187.812 17.8965Z" fill="#0152A8"/>
<path d="M26.5592 0.819824C25.0095 0.819824 23.4811 1.18063 22.095 1.87367C20.7089 2.56671 19.5032 3.57295 18.5734 4.8127C17.3164 3.13663 15.5638 1.89857 13.564 1.27388C11.5642 0.649192 9.4186 0.669553 7.43102 1.33208C5.44344 1.9946 3.71471 3.2657 2.48969 4.96533C1.26467 6.66495 0.605469 8.70693 0.605469 10.802C0.605469 22.764 17.2258 32.1972 17.9246 32.5965C18.1226 32.7078 18.3463 32.7651 18.5734 32.7629C18.8007 32.7667 19.0249 32.7093 19.2223 32.5965C22.283 30.8072 25.1538 28.7112 27.7903 26.341C33.5966 21.117 36.5414 15.8929 36.5414 10.802C36.5414 8.15458 35.4897 5.61557 33.6177 3.74354C31.7456 1.87152 29.2066 0.819824 26.5592 0.819824Z" fill="#0FE3AF"/>
</svg>
