<svg width="55" height="55" viewBox="0 0 55 55" fill="none" xmlns="http://www.w3.org/2000/svg">
<path d="M17.5054 17.5015L6.79955 28.2407C2.97745 32.0628 2.97437 38.2566 6.79268 42.0749C10.611 45.8932 16.8047 45.8901 20.6268 42.068L30.76 31.7969L23.6122 24.2328L17.5054 17.5015Z" fill="#0FE3AF" stroke="#0152A8" stroke-width="2" stroke-linecap="round" stroke-linejoin="round"/>
<path d="M27.5304 7.50935L6.79943 28.2404C2.97733 32.0625 2.97425 38.2562 6.79256 42.0745C10.6109 45.8928 16.8046 45.8898 20.6267 42.0677L41.3577 21.3367C45.1798 17.5146 45.1829 11.3208 41.3646 7.50247C37.5463 3.68417 31.3525 3.68725 27.5304 7.50935Z" stroke="#0152A8" stroke-width="2" stroke-linecap="round" stroke-linejoin="round"/>
<path d="M17.1602 17.8906L30.9874 31.7179" stroke="#0152A8" stroke-width="2" stroke-linecap="round" stroke-linejoin="round"/>
<path d="M31.0088 21.3681L36.2804 16.2693" stroke="#0152A8" stroke-width="2" stroke-linecap="round" stroke-linejoin="round"/>
</svg>
