<svg width="56" height="56" viewBox="0 0 56 56" fill="none" xmlns="http://www.w3.org/2000/svg">
<path d="M23.5517 39.8477C23.5517 39.8477 1.79492 27.6639 1.79492 12.8692C1.79492 10.2538 2.70108 7.71918 4.35923 5.69657C6.01737 3.67395 8.32507 2.28831 10.8897 1.77538C13.4543 1.26246 16.1175 1.65394 18.426 2.88322C20.7345 4.11249 22.5458 6.10363 23.5517 8.51787C24.5577 6.10363 26.369 4.11249 28.6775 2.88322C30.986 1.65394 33.6492 1.26246 36.2138 1.77538C38.7784 2.28831 41.0861 3.67395 42.7443 5.69657C44.4024 7.71918 45.3086 10.2538 45.3086 12.8692C45.3086 27.6639 23.5517 39.8477 23.5517 39.8477Z" fill="#0FE3AF" stroke="#0152A8" stroke-width="2" stroke-linecap="round" stroke-linejoin="round"/>
<path d="M2.66797 20.915H11.3822L14.8678 15.6865L21.8392 26.1436L25.3249 20.915H30.5534" stroke="#0152A8" stroke-width="2" stroke-linecap="round" stroke-linejoin="round"/>
</svg>
