<svg width="55" height="55" viewBox="0 0 55 55" fill="none" xmlns="http://www.w3.org/2000/svg">
<path d="M27.7965 17.7572L27.7966 17.7573C29.695 13.9811 29.8808 9.8188 29.7065 7.17774L29.7056 7.16386L29.7051 7.14996C29.6807 6.51043 29.4894 5.74736 29.1974 5.0222C28.9038 4.29282 28.5434 3.68827 28.2434 3.34458L28.2422 3.34322C27.935 2.98994 27.4643 2.61565 26.9375 2.30686C26.4172 2.0019 25.9175 1.8048 25.5569 1.73666C24.6618 1.63047 22.6498 1.63085 21.2334 1.85622L21.2205 1.85827L21.2076 1.85998L15.7216 2.58667L15.5902 2.60407L15.4589 2.58666L9.97621 1.85997L9.9664 1.85867L9.95661 1.85717C8.47801 1.63131 6.52833 1.63008 5.56834 1.73656C5.23769 1.80479 4.75552 1.99973 4.24312 2.30411C3.7206 2.6145 3.2493 2.98972 2.94295 3.34341L2.93981 3.34703L2.9398 3.34702C2.63923 3.69069 2.27847 4.29563 1.97604 5.03039C1.67847 5.75334 1.47046 6.52196 1.41778 7.17531C1.29905 9.8342 1.48886 13.9943 3.32756 17.7679L3.32778 17.7683L3.3278 17.7684L3.32961 17.7721L3.33476 17.7828L3.35078 17.8167C3.36391 17.8448 3.38183 17.884 3.40385 17.9338C3.44788 18.0336 3.50834 18.1763 3.57965 18.3595C3.72222 18.7259 3.90844 19.2552 4.09343 19.9281C4.46325 21.2734 4.82954 23.1978 4.82954 25.5447C4.82954 26.4194 4.75532 27.5253 4.67502 28.6976L4.6661 28.8276C4.58723 29.978 4.50283 31.2091 4.46538 32.4324C4.42649 33.7034 4.4394 34.9386 4.55692 36.0342C4.67554 37.1402 4.89378 38.0305 5.21979 38.658M27.7965 17.7572L5.22201 38.6623C5.22127 38.6609 5.22053 38.6595 5.21979 38.658M27.7965 17.7572L27.7927 17.765L28.69 18.2064C27.7927 17.765 27.7926 17.7653 27.7924 17.7656L27.7921 17.7662L27.7914 17.7677L27.7896 17.7715L27.7844 17.7822L27.7684 17.8161C27.7552 17.8442 27.7373 17.8833 27.7152 17.9332C27.6711 18.0329 27.6106 18.1756 27.5392 18.3588C27.3964 18.7251 27.2099 19.2543 27.0247 19.9272C26.6544 21.2724 26.2877 23.1969 26.2877 25.5447C26.2877 26.0036 26.2934 26.5159 26.2997 27.0674C26.3166 28.5729 26.3369 30.3709 26.252 32.1731C26.135 34.6585 25.8221 36.9254 25.1412 38.295C25.141 38.2946 25.1392 38.2963 25.1355 38.2998C25.106 38.3272 24.9553 38.4674 24.5073 38.6083C24.037 38.7564 23.4232 38.8452 22.7915 38.852C22.1566 38.8588 21.5719 38.7819 21.1518 38.6453C20.8296 38.5405 20.727 38.4447 20.7043 38.4232C20.3569 37.1943 20.0969 35.4766 19.8619 33.5272C19.7568 32.6549 19.6537 31.7071 19.5496 30.7497C19.4264 29.617 19.3017 28.4708 19.1704 27.42C18.9232 25.4411 18.6259 23.5514 18.1908 22.1457C17.975 21.4487 17.7022 20.7912 17.3317 20.2914C16.9574 19.7865 16.3826 19.3201 15.5888 19.3283C14.8136 19.32 14.223 19.7578 13.814 20.2385C13.4021 20.7227 13.0679 21.3676 12.7852 22.065C12.2163 23.4684 11.7503 25.3563 11.3413 27.3416C11.0261 28.872 10.7363 30.5045 10.4585 32.0694C10.3742 32.5438 10.2911 33.0121 10.2087 33.4694C9.854 35.4381 9.51524 37.1891 9.15532 38.4485C9.14709 38.4578 9.0665 38.5824 8.71277 38.7318C8.33702 38.8905 7.81734 39.0022 7.25396 39.0353C6.69159 39.0683 6.15303 39.0189 5.74553 38.9054C5.36367 38.7991 5.24393 38.6809 5.22301 38.6602C5.21976 38.657 5.21889 38.6562 5.21979 38.658M27.7965 17.7572L5.21979 38.658" fill="#0FE3AF" stroke="#0152A8" stroke-width="2"/>
<path d="M23.132 7.00112L22.9995 14.9497" stroke="#0152A8" stroke-width="2" stroke-linecap="round" stroke-linejoin="round"/>
</svg>
