<svg width="55" height="55" viewBox="0 0 55 55" fill="none" xmlns="http://www.w3.org/2000/svg">
<path d="M33.2136 6.58912C28.658 6.36759 26.1483 10.5041 25.4629 12.6L25.7793 35.2985C25.6211 38.6466 26.9498 45.1609 33.53 44.4333C40.1102 43.7056 41.3861 38.0402 41.2016 35.2985C42.1111 35.1008 46.5796 32.9258 47.4101 26.4406C48.0744 21.2523 43.5479 18.3208 41.2016 17.5035V16.7126V14.0631C41.2016 10.781 38.908 6.86603 33.2136 6.58912Z" fill="#0FE3AF"/>
<path d="M25.4219 34.8727V15.9868" stroke="#0152A8" stroke-width="2" stroke-linecap="round" stroke-linejoin="round"/>
<path d="M17.5537 28.5776C19.11 28.5776 20.6315 29.0392 21.9255 29.9038C23.2196 30.7685 24.2282 31.9975 24.8238 33.4354C25.4194 34.8733 25.5752 36.4555 25.2716 37.9819C24.968 39.5084 24.2185 40.9105 23.118 42.011C22.0175 43.1116 20.6153 43.861 19.0889 44.1647C17.5624 44.4683 15.9802 44.3125 14.5423 43.7169C13.1044 43.1213 11.8754 42.1127 11.0108 40.8186C10.1461 39.5245 9.68457 38.0031 9.68457 36.4467V35.1287" stroke="#0152A8" stroke-width="2" stroke-linecap="round" stroke-linejoin="round"/>
<path d="M33.291 28.5776C31.7346 28.5776 30.2132 29.0392 28.9191 29.9038C27.6251 30.7685 26.6165 31.9975 26.0209 33.4354C25.4253 34.8733 25.2694 36.4555 25.5731 37.9819C25.8767 39.5084 26.6262 40.9105 27.7267 42.011C28.8272 43.1116 30.2293 43.861 31.7558 44.1647C33.2823 44.4683 34.8645 44.3125 36.3024 43.7169C37.7403 43.1213 38.9692 42.1127 39.8339 40.8186C40.6986 39.5245 41.1601 38.0031 41.1601 36.4467V35.1287" stroke="#0152A8" stroke-width="2" stroke-linecap="round" stroke-linejoin="round"/>
<path d="M14.4054 35.6592H12.8316C10.5996 35.6652 8.43756 34.8803 6.72916 33.4439C5.02077 32.0074 3.87643 30.0123 3.49916 27.8123C3.1219 25.6124 3.5361 23.35 4.66829 21.4264C5.80047 19.5028 7.57744 18.0425 9.68393 17.3045V14.4126C9.68393 12.3255 10.513 10.324 11.9887 8.84827C13.4645 7.37252 15.466 6.54346 17.553 6.54346C19.6401 6.54346 21.6416 7.37252 23.1173 8.84827C24.5931 10.324 25.4222 12.3255 25.4222 14.4126V36.4461" stroke="#0152A8" stroke-width="2" stroke-linecap="round" stroke-linejoin="round"/>
<path d="M36.4386 35.6592H38.0125C40.2445 35.6652 42.4065 34.8803 44.1149 33.4439C45.8233 32.0074 46.9676 30.0123 47.3449 27.8123C47.7221 25.6124 47.3079 23.35 46.1757 21.4264C45.0436 19.5028 43.2666 18.0425 41.1601 17.3045V14.4126C41.1601 12.3255 40.331 10.324 38.8553 8.84827C37.3795 7.37252 35.378 6.54346 33.291 6.54346C31.204 6.54346 29.2024 7.37252 27.7267 8.84827C26.2509 10.324 25.4219 12.3255 25.4219 14.4126" stroke="#0152A8" stroke-width="2" stroke-linecap="round" stroke-linejoin="round"/>
<path d="M17.5533 16.7737V18.3475C17.5533 19.8084 16.973 21.2095 15.9399 22.2425C14.9069 23.2755 13.5058 23.8559 12.0449 23.8559" stroke="#0152A8" stroke-width="2" stroke-linecap="round" stroke-linejoin="round"/>
<path d="M33.292 16.7739V18.3477C33.292 19.8087 33.8723 21.2097 34.9054 22.2428C35.9384 23.2758 37.3395 23.8561 38.8004 23.8561" stroke="#0152A8" stroke-width="2" stroke-linecap="round" stroke-linejoin="round"/>
</svg>
