<svg width="56" height="56" viewBox="0 0 56 56" fill="none" xmlns="http://www.w3.org/2000/svg">
<path d="M30.804 13.1985L11.6294 32.3731C11.4727 32.5305 11.3487 32.7173 11.2643 32.9227C11.18 33.1281 11.1369 33.3482 11.1377 33.5702V44.8356H22.4031C22.6251 44.8364 22.8452 44.7933 23.0506 44.709C23.256 44.6246 23.4427 44.5006 23.6002 44.3439L42.7748 25.1693" fill="#0FE3AF"/>
<path d="M30.804 13.1985L11.6294 32.3731C11.4727 32.5305 11.3487 32.7173 11.2643 32.9227C11.18 33.1281 11.1369 33.3482 11.1377 33.5702V44.8356H22.4031C22.6251 44.8364 22.8452 44.7933 23.0506 44.709C23.256 44.6246 23.4427 44.5006 23.6002 44.3439L42.7748 25.1693" stroke="#0152A8" stroke-width="2" stroke-linecap="round" stroke-linejoin="round"/>
<path d="M40.21 5.50293L50.4706 15.7636" stroke="#0152A8" stroke-width="2" stroke-linecap="round" stroke-linejoin="round"/>
<path d="M28.2383 10.6331L45.3394 27.7342" stroke="#0152A8" stroke-width="2" stroke-linecap="round" stroke-linejoin="round"/>
<path d="M22.6807 21.3215L28.2385 26.8794" stroke="#0152A8" stroke-width="2" stroke-linecap="round" stroke-linejoin="round"/>
<path d="M16.6953 27.3069L22.2532 32.8648" stroke="#0152A8" stroke-width="2" stroke-linecap="round" stroke-linejoin="round"/>
<path d="M36.7891 19.1836L45.3396 10.6331" stroke="#0152A8" stroke-width="2" stroke-linecap="round" stroke-linejoin="round"/>
<path d="M11.1382 44.8357L6.00781 49.966" stroke="#0152A8" stroke-width="2" stroke-linecap="round" stroke-linejoin="round"/>
</svg>
