<svg width="44" height="44" viewBox="0 0 44 44" fill="none" xmlns="http://www.w3.org/2000/svg">
<circle cx="21.9929" cy="21.7155" r="21.5574" fill="#0FE3AF"/>
<path d="M28.9269 15.0478H15.7591C15.1772 15.0484 14.6194 15.2728 14.2079 15.6718C13.7965 16.0707 13.5651 16.6117 13.5645 17.1759V26.2965C13.5651 26.8607 13.7965 27.4017 14.2079 27.8007C14.6194 28.1996 15.1772 28.424 15.7591 28.4247H28.9269C29.5088 28.424 30.0667 28.1996 30.4781 27.8007C30.8895 27.4017 31.121 26.8607 31.1216 26.2965V17.1759C31.121 16.6117 30.8895 16.0707 30.4781 15.6718C30.0667 15.2728 29.5088 15.0484 28.9269 15.0478ZM28.3712 18.568L22.7279 22.8242C22.6178 22.9072 22.4824 22.9522 22.343 22.9522C22.2036 22.9522 22.0682 22.9072 21.9582 22.8242L16.3148 18.568C16.2485 18.5194 16.1928 18.4586 16.151 18.3889C16.1091 18.3193 16.082 18.2424 16.0711 18.1625C16.0602 18.0826 16.0657 18.0014 16.0875 17.9237C16.1092 17.8459 16.1467 17.7731 16.1977 17.7095C16.2487 17.6459 16.3122 17.5928 16.3846 17.5532C16.4569 17.5136 16.5367 17.4883 16.6192 17.4789C16.7017 17.4694 16.7853 17.476 16.8652 17.4982C16.9451 17.5203 17.0196 17.5577 17.0845 17.608L22.343 21.5739L27.6015 17.608C27.733 17.5117 27.8983 17.4695 28.0617 17.4905C28.225 17.5114 28.3733 17.5939 28.4744 17.72C28.5756 17.8462 28.6214 18.0058 28.6021 18.1645C28.5828 18.3232 28.4999 18.4681 28.3712 18.568Z" fill="#0152A8"/>
</svg>
