<svg width="23" height="22" viewBox="0 0 23 22" fill="none" xmlns="http://www.w3.org/2000/svg">
<path d="M16.0238 1.79094C17.2526 1.79447 18.4301 2.26576 19.299 3.10188C20.1679 3.93799 20.6576 5.071 20.6613 6.25344V15.1775C20.6576 16.3599 20.1679 17.4929 19.299 18.3291C18.4301 19.1652 17.2526 19.6365 16.0238 19.64H6.74994C5.52114 19.6365 4.34372 19.1652 3.47482 18.3291C2.60593 17.4929 2.11616 16.3599 2.11249 15.1775V6.25344C2.11616 5.071 2.60593 3.93799 3.47482 3.10188C4.34372 2.26576 5.52114 1.79447 6.74994 1.79094H16.0238ZM16.0238 0.00622559H6.74994C3.1792 0.00622559 0.257812 2.8174 0.257812 6.25344V15.1775C0.257812 18.6135 3.1792 21.4247 6.74994 21.4247H16.0238C19.5946 21.4247 22.516 18.6135 22.516 15.1775V6.25344C22.516 2.8174 19.5946 0.00622559 16.0238 0.00622559Z" fill="#0152A8"/>
<path d="M17.4149 6.25382C17.1398 6.25382 16.8708 6.17531 16.642 6.02821C16.4132 5.88112 16.2349 5.67205 16.1297 5.42744C16.0244 5.18284 15.9968 4.91368 16.0505 4.654C16.1042 4.39433 16.2367 4.15581 16.4312 3.96859C16.6258 3.78138 16.8736 3.65388 17.1435 3.60223C17.4133 3.55058 17.6931 3.57709 17.9473 3.67841C18.2015 3.77973 18.4187 3.95131 18.5716 4.17145C18.7244 4.39159 18.806 4.6504 18.806 4.91516C18.8064 5.09106 18.7707 5.26531 18.7009 5.42789C18.6312 5.59047 18.5287 5.7382 18.3994 5.86258C18.2702 5.98696 18.1167 6.08555 17.9477 6.15269C17.7788 6.21983 17.5977 6.2542 17.4149 6.25382ZM11.3868 7.14594C12.1205 7.14594 12.8378 7.35531 13.4479 7.74757C14.058 8.13984 14.5335 8.69738 14.8143 9.3497C15.0951 10.002 15.1685 10.7198 15.0254 11.4123C14.8822 12.1048 14.5289 12.7409 14.0101 13.2401C13.4912 13.7394 12.8302 14.0794 12.1106 14.2171C11.3909 14.3549 10.645 14.2842 9.96711 14.014C9.28922 13.7438 8.70982 13.2862 8.30217 12.6992C7.89453 12.1121 7.67695 11.4219 7.67695 10.7158C7.678 9.76935 8.0692 8.86192 8.7647 8.19265C9.46021 7.52339 10.4032 7.14695 11.3868 7.14594ZM11.3868 5.36122C10.2862 5.36122 9.2104 5.67526 8.29531 6.26364C7.38023 6.85201 6.66701 7.68829 6.24584 8.66672C5.82468 9.64514 5.71448 10.7218 5.92919 11.7605C6.1439 12.7992 6.67387 13.7533 7.45208 14.5021C8.2303 15.251 9.2218 15.761 10.3012 15.9676C11.3806 16.1742 12.4995 16.0681 13.5163 15.6629C14.533 15.2576 15.4021 14.5713 16.0136 13.6907C16.625 12.8101 16.9513 11.7749 16.9513 10.7158C16.9513 9.29571 16.3651 7.93374 15.3215 6.92955C14.278 5.92537 12.8626 5.36122 11.3868 5.36122Z" fill="#0152A8"/>
</svg>
