<svg width="44" height="44" viewBox="0 0 44 44" fill="none" xmlns="http://www.w3.org/2000/svg">
<circle cx="22.1707" cy="21.7155" r="21.5574" fill="#0FE3AF"/>
<path d="M29.4682 25.3731C29.2904 25.1837 28.6628 24.6239 27.5091 23.8832C26.3468 23.1361 25.4896 22.6702 25.2438 22.5616C25.2221 22.552 25.1982 22.5484 25.1747 22.5514C25.1512 22.5543 25.1289 22.5636 25.1103 22.5783C24.7142 22.8871 24.0474 23.4545 24.0117 23.4851C23.7808 23.683 23.7808 23.683 23.5918 23.6213C23.2594 23.5124 22.2269 22.9641 21.3272 22.0623C20.4275 21.1606 19.851 20.1025 19.742 19.7705C19.6797 19.5812 19.6797 19.5812 19.8782 19.3503C19.9088 19.3145 20.4765 18.6478 20.7854 18.252C20.8 18.2334 20.8093 18.2111 20.8123 18.1876C20.8152 18.1641 20.8117 18.1402 20.8021 18.1186C20.6935 17.8723 20.2276 17.0155 19.4804 15.8533C18.7387 14.6999 18.1796 14.0723 17.9902 13.8945C17.9729 13.8781 17.9514 13.8667 17.9281 13.8615C17.9048 13.8563 17.8805 13.8575 17.8578 13.8649C17.1959 14.0923 16.5573 14.3825 15.9507 14.7316C15.3651 15.072 14.8107 15.4634 14.294 15.9013C14.276 15.9166 14.2624 15.9366 14.2549 15.959C14.2473 15.9815 14.246 16.0055 14.2511 16.0287C14.3223 16.3604 14.6625 17.745 15.7181 19.6629C16.7953 21.6203 17.5417 22.6232 19.1236 24.1996C20.7054 25.7759 21.7399 26.5673 23.6994 27.6445C25.6173 28.7001 27.0027 29.0407 27.3337 29.1112C27.3568 29.1162 27.381 29.1149 27.4034 29.1073C27.4259 29.0998 27.4459 29.0863 27.4614 29.0682C27.8992 28.5515 28.2905 27.9971 28.6308 27.4115C28.9798 26.8049 29.27 26.1663 29.4975 25.5045C29.5048 25.482 29.5059 25.4579 29.5007 25.4348C29.4956 25.4117 29.4843 25.3904 29.4682 25.3731Z" fill="#0152A8"/>
</svg>
