<svg width="22" height="18" viewBox="0 0 22 18" fill="none" xmlns="http://www.w3.org/2000/svg">
<path d="M21.6117 2.04006C20.8063 2.38976 19.9541 2.62016 19.0821 2.72396C19.9985 2.18773 20.6877 1.33585 21.0203 0.328069C20.1539 0.83433 19.2076 1.18955 18.2219 1.3785C17.8069 0.943816 17.3077 0.59801 16.7547 0.362105C16.2018 0.1262 15.6066 0.00512271 15.0053 0.00623316C12.571 0.00623316 10.6011 1.94619 10.6011 4.3376C10.5993 4.67024 10.6375 5.00189 10.7147 5.32546C8.96912 5.24369 7.25986 4.79872 5.69625 4.01901C4.13265 3.23931 2.74913 2.14204 1.63421 0.797413C1.24306 1.45634 1.03621 2.20815 1.03525 2.97427C1.03525 4.47617 1.81939 5.80375 3.00343 6.58152C2.30192 6.56488 1.61479 6.37934 1.00036 6.04065V6.09429C1.00036 8.19516 2.52123 9.94291 4.53414 10.3407C4.15562 10.4416 3.76555 10.4927 3.37381 10.4927C3.09584 10.4932 2.8185 10.4662 2.54583 10.4123C3.10542 12.1332 4.73409 13.3848 6.66335 13.4205C5.09569 14.6278 3.171 15.2804 1.19181 15.2756C0.8405 15.275 0.489514 15.2541 0.140625 15.213C2.15406 16.4977 4.49453 17.1773 6.88343 17.1708C14.9959 17.1708 19.4279 10.5687 19.4279 4.84271C19.4279 4.65497 19.423 4.46723 19.414 4.28397C20.2743 3.6725 21.0185 2.91264 21.6117 2.04006Z" fill="#0152A8"/>
</svg>
