<svg width="86" height="86" viewBox="0 0 86 86" fill="none" xmlns="http://www.w3.org/2000/svg">
<circle cx="42.6853" cy="43.2461" r="42.5" fill="#E6ECF2"/>
<path d="M49.5602 43.2425C49.5602 47.0394 46.4821 50.1175 42.6852 50.1175C38.8882 50.1175 35.8102 47.0394 35.8102 43.2425C35.8102 39.4455 38.8882 36.3675 42.6852 36.3675C46.4821 36.3675 49.5602 39.4455 49.5602 43.2425ZM49.5602 43.2425C49.5602 47.0409 50.9352 50.1175 54.3727 50.1175C57.8102 50.1175 59.1852 47.0409 59.1852 43.2425C59.1843 39.5662 57.9558 35.9956 55.6945 33.0971C53.4333 30.1986 50.2688 28.1383 46.7033 27.2431C43.1378 26.3478 39.3754 26.669 36.0131 28.1555C32.6509 29.6421 29.8814 32.2089 28.144 35.4486C26.4067 38.6884 25.8011 42.4156 26.4232 46.0388C27.0454 49.662 28.8597 52.9736 31.5783 55.4482C34.2969 57.9229 37.764 59.4187 41.4296 59.6985C45.0951 59.9782 48.7491 59.0258 51.8117 56.9924M49.5602 43.2425V36.3675" stroke="#0152A8" stroke-width="2" stroke-linecap="round" stroke-linejoin="round"/>
</svg>
