<svg width="86" height="86" viewBox="0 0 86 86" fill="none" xmlns="http://www.w3.org/2000/svg">
<circle cx="43.337" cy="43.2461" r="42.5" fill="#E6ECF2"/>
<path d="M32.337 59.7461H55.9085" stroke="#0152A8" stroke-width="2" stroke-linecap="round" stroke-linejoin="round"/>
<path d="M43.3365 44.0316C45.9401 44.0316 48.0508 41.9209 48.0508 39.3173C48.0508 36.7137 45.9401 34.603 43.3365 34.603C40.7328 34.603 38.6222 36.7137 38.6222 39.3173C38.6222 41.9209 40.7328 44.0316 43.3365 44.0316Z" stroke="#0152A8" stroke-width="2" stroke-linecap="round" stroke-linejoin="round"/>
<path d="M55.9076 39.4384C55.9076 50.8615 43.3362 59.7461 43.3362 59.7461C43.3362 59.7461 30.7648 50.8615 30.7648 39.4384C30.7648 36.0722 32.0893 32.8439 34.4469 30.4636C36.8045 28.0833 40.002 26.7461 43.3362 26.7461C46.6703 26.7461 49.8679 28.0833 52.2255 30.4636C54.5831 32.8439 55.9076 36.0722 55.9076 39.4384V39.4384Z" stroke="#0152A8" stroke-width="2" stroke-linecap="round" stroke-linejoin="round"/>
</svg>
