<svg width="1200" height="414" viewBox="0 0 1200 414" fill="none" xmlns="http://www.w3.org/2000/svg">
<rect x="0.00390625" y="0.551758" width="1200" height="412.678" fill="#0152A8"/>
<mask id="mask0_156_63" style="mask-type:alpha" maskUnits="userSpaceOnUse" x="0" y="0" width="1200" height="414">
<rect x="0.00390625" y="0.551758" width="1200" height="412.678" fill="#0152A8"/>
</mask>
<g mask="url(#mask0_156_63)">
<g opacity="0.58">
<path d="M1244.98 43.4062V-14.1102L1195.16 -42.6345L1145.57 -14.1102V43.4062L1195.16 71.9306L1244.98 43.4062Z" fill="white" fill-opacity="0.5"/>
<path d="M1143.22 42.7556V-14.7608L1093.4 -43.2852L1043.81 -14.7608V42.7556L1093.4 71.2799L1143.22 42.7556Z" fill="white" fill-opacity="0.5"/>
</g>
<g opacity="0.41">
<path d="M1092.24 131.551V74.0348L1042.42 45.2766L992.83 74.0348V131.551L1042.42 160.075L1092.24 131.551Z" fill="white" fill-opacity="0.5"/>
</g>
<g opacity="0.5">
<path d="M1193.99 131.551V74.0348L1144.4 45.2766L1094.58 74.0348V131.551L1144.4 160.075L1193.99 131.551Z" fill="white" fill-opacity="0.5"/>
</g>
<g opacity="0.6">
<path d="M1295.74 131.551V74.0348L1246.15 45.2766L1196.33 74.0348V131.551L1246.15 160.075L1295.74 131.551Z" fill="white" fill-opacity="0.5"/>
</g>
<g opacity="0.31">
<path d="M1143.23 219.462V162.18L1093.41 133.422L1043.82 162.18V219.462L1093.41 248.22L1143.23 219.462Z" fill="white" fill-opacity="0.5"/>
</g>
<g opacity="0.25">
<path d="M1244.98 219.462V162.18L1195.16 133.422L1145.57 162.18V219.462L1195.16 248.22L1244.98 219.462Z" fill="white" fill-opacity="0.5"/>
<path d="M1041.51 43.6655V-13.6171L991.692 -42.3752L942.104 -13.6171V43.6655L991.692 72.4236L1041.51 43.6655Z" fill="white" fill-opacity="0.5"/>
</g>
<g opacity="0.58">
<path d="M-8.17751 400.135L-8.17751 457.651L41.6449 486.175L91.2334 457.651L91.2334 400.135L41.6449 371.61L-8.17751 400.135Z" fill="white" fill-opacity="0.5"/>
<path d="M93.5842 400.785L93.5842 458.302L143.407 486.826L192.995 458.302L192.995 400.785L143.407 372.261L93.5842 400.785Z" fill="white" fill-opacity="0.5"/>
</g>
<g opacity="0.41">
<path d="M144.565 311.99L144.565 369.506L194.387 398.264L243.976 369.506L243.976 311.99L194.387 283.465L144.565 311.99Z" fill="white" fill-opacity="0.5"/>
</g>
<g opacity="0.5">
<path d="M42.8147 311.99L42.8147 369.506L92.4032 398.264L142.226 369.506L142.226 311.99L92.4032 283.465L42.8147 311.99Z" fill="white" fill-opacity="0.5"/>
</g>
<g opacity="0.6">
<path d="M-58.9353 311.99L-58.9353 369.506L-9.34683 398.264L40.4756 369.506L40.4756 311.99L-9.34682 283.465L-58.9353 311.99Z" fill="white" fill-opacity="0.5"/>
</g>
<g opacity="0.31">
<path d="M93.5725 224.078L93.5725 281.361L143.395 310.119L192.983 281.361L192.983 224.078L143.395 195.32L93.5725 224.078Z" fill="white" fill-opacity="0.5"/>
</g>
<g opacity="0.25">
<path d="M-8.17751 224.078L-8.17751 281.361L41.6449 310.119L91.2334 281.361L91.2334 224.078L41.6449 195.32L-8.17751 224.078Z" fill="white" fill-opacity="0.5"/>
<path d="M195.291 399.875L195.291 457.158L245.114 485.916L294.702 457.158L294.702 399.875L245.114 371.117L195.291 399.875Z" fill="white" fill-opacity="0.5"/>
</g>
</g>
</svg>
