<svg width="36" height="35" viewBox="0 0 36 35" fill="none" xmlns="http://www.w3.org/2000/svg">
<circle cx="17.7993" cy="17.312" r="17.312" fill="#095FBA"/>
<path d="M15.5229 17.5399C16.1203 18.7736 17.118 19.7687 18.3532 20.3629C18.4443 20.4061 18.5451 20.4248 18.6456 20.4171C18.7462 20.4095 18.843 20.3758 18.9265 20.3194L20.7408 19.1074C20.821 19.0531 20.9136 19.0199 21.0101 19.011C21.1065 19.0021 21.2036 19.0178 21.2924 19.0566L24.6887 20.5153C24.8048 20.5637 24.9018 20.6488 24.9647 20.7576C25.0277 20.8665 25.0531 20.993 25.0371 21.1177C24.9294 21.9579 24.5193 22.7301 23.8835 23.2897C23.2477 23.8494 22.4297 24.1583 21.5827 24.1584C18.965 24.1584 16.4546 23.1186 14.6037 21.2677C12.7527 19.4167 11.7129 16.9063 11.7129 14.2887C11.7131 13.4416 12.0219 12.6237 12.5816 11.9878C13.1413 11.352 13.9135 10.9419 14.7536 10.8343C14.8784 10.8182 15.0049 10.8437 15.1137 10.9066C15.2226 10.9696 15.3077 11.0665 15.356 11.1826L16.8147 14.5862C16.8526 14.6736 16.8685 14.7689 16.8609 14.8638C16.8533 14.9587 16.8225 15.0503 16.7711 15.1305L15.5592 16.9738C15.5052 17.0572 15.4736 17.153 15.4672 17.2521C15.4609 17.3512 15.48 17.4503 15.5229 17.5399V17.5399Z" stroke="white" stroke-linecap="round" stroke-linejoin="round"/>
</svg>
