<svg width="60" height="60" viewBox="0 0 60 60" fill="none" xmlns="http://www.w3.org/2000/svg">
<circle cx="30.3669" cy="29.6912" r="29.0442" stroke="#0FE3AF"/>
<path d="M35.3978 29.6884C35.3978 32.4671 33.1452 34.7196 30.3665 34.7196C27.5878 34.7196 25.3353 32.4671 25.3353 29.6884C25.3353 26.9097 27.5878 24.6571 30.3665 24.6571C33.1452 24.6571 35.3978 26.9097 35.3978 29.6884ZM35.3978 29.6884C35.3978 32.4681 36.404 34.7196 38.9196 34.7196C41.4353 34.7196 42.4415 32.4681 42.4415 29.6884C42.4409 26.9981 41.5418 24.385 39.887 22.2638C38.2322 20.1427 35.9164 18.6349 33.307 17.9797C30.6977 17.3246 27.9443 17.5596 25.4838 18.6475C23.0232 19.7353 20.9964 21.6138 19.725 23.9847C18.4536 26.3556 18.0104 29.0833 18.4657 31.7348C18.921 34.3863 20.2488 36.8098 22.2383 38.6208C24.2278 40.4318 26.7651 41.5265 29.4476 41.7312C32.1301 41.9359 34.8042 41.2389 37.0455 39.7509M35.3978 29.6884V24.6571" stroke="#0152A8" stroke-linecap="round" stroke-linejoin="round"/>
</svg>
