<svg width="60" height="60" viewBox="0 0 60 60" fill="none" xmlns="http://www.w3.org/2000/svg">
<circle cx="30.2786" cy="29.6912" r="29.0442" stroke="#0FE3AF"/>
<path d="M33.903 18.6235C35.6873 19.1024 37.3142 20.0421 38.6205 21.3484C39.9268 22.6547 40.8665 24.2816 41.3453 26.0658M32.8116 22.6865C33.8848 22.9715 34.8635 23.5352 35.6486 24.3203C36.4337 25.1054 36.9973 26.0841 37.2823 27.1572M25.1063 29.7739C26.1888 32.0092 27.9963 33.8121 30.2344 34.8888C30.3995 34.967 30.5821 35.0008 30.7643 34.987C30.9464 34.9731 31.1218 34.9121 31.2732 34.8099L34.5605 32.614C34.7057 32.5155 34.8735 32.4554 35.0483 32.4393C35.223 32.4232 35.399 32.4517 35.5598 32.522L41.7135 35.1649C41.9238 35.2525 42.0995 35.4067 42.2136 35.6039C42.3276 35.8011 42.3737 36.0303 42.3447 36.2563C42.1496 37.7786 41.4066 39.1777 40.2546 40.1918C39.1025 41.2058 37.6205 41.7654 36.0857 41.7657C31.343 41.7657 26.7945 39.8817 23.4408 36.528C20.0872 33.1744 18.2031 28.6259 18.2031 23.8831C18.2035 22.3484 18.763 20.8663 19.7771 19.7143C20.7912 18.5623 22.1902 17.8192 23.7125 17.6242C23.9385 17.5952 24.1677 17.6412 24.3649 17.7553C24.5621 17.8693 24.7164 18.045 24.8039 18.2553L27.4469 24.4222C27.5156 24.5805 27.5443 24.7532 27.5306 24.9252C27.5168 25.0971 27.461 25.2631 27.368 25.4084L25.1721 28.7482C25.0743 28.8993 25.0169 29.0729 25.0054 29.2525C24.9939 29.432 25.0287 29.6115 25.1063 29.7739Z" stroke="#0152A8" stroke-linecap="round" stroke-linejoin="round"/>
</svg>
